<svg width="202" height="134" fill="none" xmlns="http://www.w3.org/2000/svg"><path d="M108.272 57.91a13.155 13.155 0 0 0-16.3 1.348 13.02 13.02 0 0 0-3.98 7.66 12.987 12.987 0 0 0 1.696 8.457M112.931 63.441a13.301 13.301 0 0 0-.883-1.654M111.814 76.01a13.037 13.037 0 0 0 1.961-9.959M87.94 55.776c-.89.89-1.69 1.867-2.383 2.916" stroke="#263238" stroke-width=".97" stroke-linecap="round" stroke-linejoin="round"/><path d="M115.496 79.926a18.24 18.24 0 0 0-.876-23.449 18.427 18.427 0 0 0-11.065-5.875 18.473 18.473 0 0 0-12.278 2.545M86.37 79.926a18.31 18.31 0 0 1-3.564-8.004 18.265 18.265 0 0 1 .568-8.736M80.603 84.554a25.837 25.837 0 0 0 3.874 3.961" stroke="#263238" stroke-width=".97" stroke-linecap="round" stroke-linejoin="round"/><path d="M115.56 47.525a25.929 25.929 0 0 0-15.704-4.474 25.912 25.912 0 0 0-15.262 5.794 25.695 25.695 0 0 0-8.72 13.745 25.59 25.59 0 0 0 1.31 16.202M125.041 59.437a25.655 25.655 0 0 0-2.658-5.063M118.803 87.29a25.607 25.607 0 0 0 5.903-8.47 25.516 25.516 0 0 0 2.072-10.1M64.856 68.72c0 8.529 3.034 16.781 8.566 23.296a36.313 36.313 0 0 0 21.653 12.292" stroke="#263238" stroke-width=".97" stroke-linecap="round" stroke-linejoin="round"/><path d="M130.088 90.195a35.988 35.988 0 0 0 7.09-20.5 35.966 35.966 0 0 0-5.988-20.844 36.246 36.246 0 0 0-16.909-13.673 36.45 36.45 0 0 0-21.73-1.57M64.856 68.72c0-8.09 2.731-15.945 7.755-22.306a36.298 36.298 0 0 1 19.95-12.77M122.383 97.82a36.011 36.011 0 0 0 2.658-2.144M106.981 104.308a36.121 36.121 0 0 0 11.741-4.127" stroke="#263238" stroke-width=".97" stroke-linecap="round" stroke-linejoin="round"/><path d="M100.949 101.076a13.904 13.904 0 0 1-9.792-4.042 13.768 13.768 0 0 1-4.062-9.744V82.65a.749.749 0 0 1 .754-.75h1.885a.756.756 0 0 1 .754.75.748.748 0 0 1-.754.75h-1.123v3.891c0 3.259 1.3 6.383 3.616 8.687a12.377 12.377 0 0 0 8.73 3.599c3.275 0 6.415-1.295 8.73-3.599a12.252 12.252 0 0 0 3.617-8.687V83.4h-1.132a.757.757 0 0 1-.754-.75.75.75 0 0 1 .754-.75h1.886a.755.755 0 0 1 .754.75v4.641a13.767 13.767 0 0 1-4.066 9.747 13.904 13.904 0 0 1-9.797 4.039ZM115.558 112.611v-1.501a1.497 1.497 0 0 0-1.508-1.501h-26.2a1.525 1.525 0 0 0-1.068.439 1.506 1.506 0 0 0-.441 1.062v1.501h29.217Z" fill="#263238"/><path d="M102.419 111.437a1.44 1.44 0 0 0 .038-.327v-10.784H99.44v10.784c0 .11.013.22.038.327h2.941Z" fill="#263238"/><path d="M110.279 68.72a9.267 9.267 0 0 0-2.677-6.668A9.33 9.33 0 0 0 104.556 60a9.374 9.374 0 0 0-10.263 2.053 9.283 9.283 0 0 0-2.012 3.067 9.245 9.245 0 0 0-.664 3.602v18.57a9.264 9.264 0 0 0 2.788 6.463 9.357 9.357 0 0 0 6.543 2.665 9.355 9.355 0 0 0 6.542-2.665 9.264 9.264 0 0 0 2.789-6.464V68.72Z" stroke="#263238" stroke-width=".97" stroke-linecap="round" stroke-linejoin="round"/><path d="M110.279 68.72a9.267 9.267 0 0 0-2.677-6.668A9.33 9.33 0 0 0 104.556 60a9.374 9.374 0 0 0-10.263 2.053 9.283 9.283 0 0 0-2.012 3.067 9.245 9.245 0 0 0-.664 3.602v18.57a9.264 9.264 0 0 0 2.788 6.463 9.357 9.357 0 0 0 6.543 2.665 9.355 9.355 0 0 0 6.542-2.665 9.264 9.264 0 0 0 2.789-6.464V68.72Z" fill="#E8E8E8"/><path d="M97.085 69.699h-5.468v2.251h5.468c.3 0 .587-.118.8-.33a1.123 1.123 0 0 0 0-1.592c-.213-.21-.5-.33-.8-.33ZM110.28 69.699h-5.465c-.3 0-.588.118-.8.33a1.123 1.123 0 0 0 .8 1.921h5.465v-2.251ZM100.95 69.699a1.137 1.137 0 0 0-1.046.695 1.12 1.12 0 0 0 .246 1.226 1.13 1.13 0 0 0 1.232.244 1.128 1.128 0 0 0 .699-1.04 1.132 1.132 0 0 0-1.131-1.126ZM100.95 74.25a1.136 1.136 0 0 0-1.046.694 1.12 1.12 0 0 0 .246 1.227 1.13 1.13 0 0 0 1.232.244 1.128 1.128 0 0 0 .699-1.04 1.132 1.132 0 0 0-1.131-1.126ZM100.95 78.792a1.136 1.136 0 0 0-1.046.695 1.12 1.12 0 0 0 .246 1.227 1.129 1.129 0 0 0 1.232.244 1.128 1.128 0 0 0 .699-1.04 1.132 1.132 0 0 0-1.131-1.126ZM97.085 74.25h-5.468v2.25h5.468c.3 0 .587-.118.8-.329a1.123 1.123 0 0 0 0-1.592c-.213-.21-.5-.33-.8-.33ZM110.28 74.25h-5.465c-.3 0-.588.118-.8.33a1.123 1.123 0 0 0 .8 1.92h5.465v-2.25ZM97.085 78.792h-5.468v2.251h5.468c.3 0 .587-.118.8-.33a1.123 1.123 0 0 0 0-1.591c-.213-.211-.5-.33-.8-.33ZM110.28 78.792h-5.465c-.3 0-.588.119-.8.33a1.123 1.123 0 0 0 .8 1.921h5.465v-2.25Z" fill="#fff"/><path d="M110.279 68.72a9.267 9.267 0 0 0-2.677-6.668A9.33 9.33 0 0 0 104.556 60a9.374 9.374 0 0 0-10.263 2.053 9.283 9.283 0 0 0-2.012 3.067 9.245 9.245 0 0 0-.664 3.602v18.57a9.264 9.264 0 0 0 2.788 6.463 9.357 9.357 0 0 0 6.543 2.665 9.355 9.355 0 0 0 6.542-2.665 9.264 9.264 0 0 0 2.789-6.464V68.72Z" stroke="#263238" stroke-width=".97" stroke-miterlimit="10"/><path d="M91.617 87.29a9.264 9.264 0 0 0 2.788 6.464 9.356 9.356 0 0 0 6.543 2.665 9.356 9.356 0 0 0 6.543-2.665 9.263 9.263 0 0 0 2.788-6.464H91.617Z" fill="#263238" stroke="#263238" stroke-width=".97" stroke-miterlimit="10"/><path d="M180.098 82.613c11.652-11.594 11.652-30.392 0-41.986-11.652-11.595-30.544-11.595-42.196 0-11.652 11.594-11.652 30.392 0 41.986 11.652 11.594 30.544 11.594 42.196 0Z" fill="#E8E8E8"/><path d="M154.722 49.336h-20.844c-1.05 0-1.901.847-1.901 1.892v20.74c0 1.046.851 1.893 1.901 1.893h20.844c1.05 0 1.901-.847 1.901-1.892v-20.74a1.896 1.896 0 0 0-1.901-1.893Z" fill="#fff"/><g opacity=".1" fill="#000"><path opacity=".1" d="M134.301 73.864h8.226l5.241-24.528h-8.559l-5.233 24.5c.107.018.216.027.325.028ZM151.253 49.336h-2.057l-5.239 24.528h2.058l5.238-24.528Z"/></g><path d="M154.299 74.475h-19.998a2.954 2.954 0 0 1-2.075-.856 2.925 2.925 0 0 1-.864-2.063V51.649a2.924 2.924 0 0 1 .863-2.066 2.95 2.95 0 0 1 2.076-.858h19.998c.779 0 1.526.309 2.078.857.551.548.861 1.291.863 2.067v19.907a2.923 2.923 0 0 1-.865 2.063 2.951 2.951 0 0 1-2.076.856ZM134.301 49.95a1.701 1.701 0 0 0-1.711 1.7v19.906c0 .452.181.885.501 1.204.321.32.756.5 1.21.5h19.998a1.717 1.717 0 0 0 1.581-1.052c.085-.207.129-.428.129-.652V51.649a1.692 1.692 0 0 0-1.056-1.57 1.713 1.713 0 0 0-.654-.13h-19.998Z" fill="#fff" stroke="#263238" stroke-width=".933" stroke-miterlimit="10"/><path d="M183.71 49.336h-20.844c-1.05 0-1.901.847-1.901 1.892v20.74c0 1.046.851 1.893 1.901 1.893h20.844c1.05 0 1.902-.847 1.902-1.892v-20.74a1.897 1.897 0 0 0-1.902-1.893Z" fill="#fff"/><g opacity=".1" fill="#000"><path opacity=".1" d="M165.441 73.864h8.225l5.239-24.528h-8.557l-5.246 24.5c.112.018.225.027.339.028ZM182.393 49.336h-2.058l-5.241 24.528h2.06l5.239-24.528Z"/></g><path d="M183.287 74.475h-19.998a2.95 2.95 0 0 1-2.074-.856 2.917 2.917 0 0 1-.864-2.063V51.649a2.92 2.92 0 0 1 .862-2.066 2.951 2.951 0 0 1 2.076-.858h19.998c.779 0 1.527.309 2.078.857.551.548.862 1.291.863 2.067v19.907a2.923 2.923 0 0 1-.865 2.063 2.951 2.951 0 0 1-2.076.856ZM163.289 49.95c-.453 0-.888.179-1.208.497-.321.319-.502.751-.502 1.202v19.907c0 .452.18.885.501 1.204.32.32.755.5 1.209.5h19.998a1.717 1.717 0 0 0 1.581-1.052c.086-.207.13-.428.129-.652V51.649a1.692 1.692 0 0 0-1.056-1.57 1.713 1.713 0 0 0-.654-.13h-19.998Z" fill="#fff" stroke="#263238" stroke-width=".933" stroke-miterlimit="10"/><path d="M159.807 118.85c7.412 0 13.421-.879 13.421-1.964s-6.009-1.965-13.421-1.965c-7.413 0-13.421.88-13.421 1.965s6.008 1.964 13.421 1.964Z" fill="#E8E8E8"/><path d="M165.738 105.442s-.035 5.502-.62 6.408c-.697 1.072-1.193 2.57.655 2.977 1.847.408 2.946 2.436 5.147 2.57 2.2.134 2.424-.804 1.465-1.557-.959-.753-3.394-2.84-3.714-3.856-.321-1.016.302-6.542.302-6.542h-3.235Z" fill="#fff"/><path opacity=".1" d="M168.678 108.637c.119-1.622.294-3.195.294-3.195h-3.232s0 1.407-.094 2.916c1.001.176 2.015.269 3.032.279Z" fill="#000"/><path d="M165.738 105.442s-.035 5.502-.62 6.408c-.697 1.072-1.193 2.57.655 2.977 1.847.408 2.946 2.436 5.147 2.57 2.2.134 2.424-.804 1.465-1.557-.959-.753-3.394-2.84-3.714-3.856-.321-1.016.302-6.542.302-6.542h-3.235Z" stroke="#263238" stroke-width=".933" stroke-linecap="round" stroke-linejoin="round"/><path d="M172.374 115.84a27.258 27.258 0 0 1-2.553-2.286c-.768.579-3.017.032-3.679-.487-.808-.633-.638-.957-1.021-1.241l-.013.024c-.698 1.072-1.194 2.57.654 2.977 1.848.408 2.947 2.436 5.147 2.57 2.201.134 2.429-.817 1.465-1.557Z" fill="#BFBFBF" stroke="#263238" stroke-width=".933" stroke-miterlimit="10"/><path d="M153.313 103.448s-2.424 5.033-3.34 5.647c-1.107.734-2.205 1.916-.689 2.969s1.651 3.321 3.609 4.256 2.569.145 2.017-.887-1.885-3.857-1.737-4.907c.148-1.051 3.13-6.006 3.13-6.006l-2.99-1.072Z" fill="#fff"/><path opacity=".1" d="M153.313 103.448s-.867 1.806-1.758 3.385a9.485 9.485 0 0 0 2.456 1.75c.929-1.79 2.292-4.055 2.292-4.055l-2.99-1.08Z" fill="#000"/><path d="M153.313 103.448s-2.424 5.033-3.34 5.647c-1.107.734-2.205 1.916-.689 2.969s1.651 3.321 3.609 4.256 2.569.145 2.017-.887-1.885-3.857-1.737-4.907c.148-1.051 3.13-6.006 3.13-6.006l-2.99-1.072Z" stroke="#263238" stroke-width=".933" stroke-linecap="round" stroke-linejoin="round"/><path d="M154.911 115.42a25.042 25.042 0 0 1-1.347-3.04c-.956.25-2.944-1.023-3.162-1.8-.423-1.499-.172-1.113-.401-1.515l-.022.016c-1.107.735-2.206 1.917-.689 2.97 1.516 1.053 1.651 3.32 3.609 4.256 1.958.935 2.564.144 2.012-.887Z" fill="#BFBFBF" stroke="#263238" stroke-width=".933" stroke-miterlimit="10"/><path d="M166.128 67.834s3.709 17.688 3.957 23.457c.247 5.77-.717 16.062-.717 16.062l-4.118-.268s-.027-3.042-.439-7.276c-.245-2.517-1.015-5.454-.929-8.424 0 0-3.914-11.548-3.771-16.616.143-5.068 0-6.526 0-6.526l6.017-.41Z" fill="#263238" stroke="#263238" stroke-width=".933" stroke-linecap="round" stroke-linejoin="round"/><path d="M156.214 67.834s-3.846 3.162-1.616 9.538c.878 2.53 4.266 14.102 4.266 14.102a16.15 16.15 0 0 0-2.343 3.497c-1.546 3.04-2.672 7.772-4.579 10.487l2.823 1.895s9.114-11.369 9.696-14.979c.582-3.61-2.155-18.044-2.155-18.044l-.875-5.867-5.217-.63Z" fill="#263238" stroke="#263238" stroke-width=".933" stroke-linecap="round" stroke-linejoin="round"/><path d="M173.271 55.846a3.539 3.539 0 0 0-.59-1.675c.283-.37.527-.767.73-1.185.205-.49-.067-1.184-.635-.353-.569.83-1.194 1.436-.967 2.473.118.67-.004 1.36-.345 1.949l1.312 1.02 2.615-2.063-2.12-.166Z" fill="#fff" stroke="#263238" stroke-width=".933" stroke-linecap="round" stroke-linejoin="round"/><path d="m174.503 50.544-2.199.595a.378.378 0 0 0-.267.464l1.253 4.585a.38.38 0 0 0 .466.266l2.199-.595a.378.378 0 0 0 .267-.464l-1.253-4.585a.38.38 0 0 0-.466-.266Z" fill="#263238" stroke="#263238" stroke-width=".933" stroke-linecap="round" stroke-linejoin="round"/><path d="m174.984 50.867-2.931.793 1.222 4.474 2.932-.793-1.223-4.474Z" fill="#E8E8E8" stroke="#263238" stroke-width=".933" stroke-linecap="round" stroke-linejoin="round"/><path d="M174.396 52.416a.539.539 0 0 0-1.045.268c.035.134.21.763.269.986l1.045-.282c-.059-.206-.237-.86-.269-.972ZM174.3 54.115a.538.538 0 0 0 .39-.609l-1.037.268a.538.538 0 0 0 .647.34Z" fill="#263238"/><path d="m175.274 54.672-.678.185-.14-.51a.835.835 0 0 0 .506-.997l-.075-.267a.049.049 0 0 0-.008-.016.036.036 0 0 0-.012-.012.043.043 0 0 0-.034-.004l-.113.03a.038.038 0 0 0-.016.007.044.044 0 0 0-.012.014.05.05 0 0 0-.005.017c0 .006.001.012.003.017a.045.045 0 0 0 .007.016.045.045 0 0 0 .029.017h.018l.067-.02.062.228a.73.73 0 0 1-.073.567.747.747 0 0 1-.745.369.745.745 0 0 1-.628-.544l-.065-.228.067-.016a.044.044 0 0 0 .027-.022c.006-.01.008-.023.006-.034a.078.078 0 0 0-.008-.016.056.056 0 0 0-.014-.012.046.046 0 0 0-.035-.004l-.11.029a.038.038 0 0 0-.016.008.044.044 0 0 0-.012.013.05.05 0 0 0-.006.017.054.054 0 0 0 .001.018l.076.268a.843.843 0 0 0 .943.606l.137.51-.679.181a.084.084 0 0 0-.032.016.087.087 0 0 0-.035.061.072.072 0 0 0 .003.036l.024.088 1.713-.463-.024-.089a.118.118 0 0 0-.016-.032.096.096 0 0 0-.062-.035.092.092 0 0 0-.036.003Z" fill="#263238"/><path d="M175.552 51.912c-.269.03-.493.45-.409 1.042.083.593.63-.05.662-.238.033-.188.262-.855-.253-.804ZM176.144 52.796a.48.48 0 0 0-.477.574c.051.576.164.442.164.442.003.237.052.472.143.691.135.255.49-.131.49-.362 0-.23-.037-1.441-.32-1.345Z" fill="#fff" stroke="#263238" stroke-width=".933" stroke-linecap="round" stroke-linejoin="round"/><path d="M175.835 53.801s.466-.137.576-.474l-.576.474Z" fill="#fff"/><path d="M175.835 53.801s.466-.137.576-.474" stroke="#263238" stroke-width=".933" stroke-linecap="round" stroke-linejoin="round"/><path d="M171.786 56.237c.09-.37.098-.757.021-1.13-.226-1.038.396-1.646.967-2.474.571-.829.841-.137.636.353a6.991 6.991 0 0 1-.73 1.185c.364.485.57 1.07.59 1.675v.78" fill="#fff"/><path d="M171.786 56.237c.09-.37.098-.757.021-1.13-.226-1.038.396-1.646.967-2.474.571-.829.841-.137.636.353a6.991 6.991 0 0 1-.73 1.185c.364.485.57 1.07.59 1.675v.78" stroke="#263238" stroke-width=".933" stroke-linecap="round" stroke-linejoin="round"/><path d="M164.563 49.76c.937-.196 1.225-.435 1.225-.435-.702-2.816 1.818-12.29-6.127-12.727-7.945-.437-3.501 12.987-3.501 12.987l.864.11-.444-2.699 1.034 2.766c3.06.33 5.021.268 6.254.113a14.987 14.987 0 0 1-.051-3.672c.155 1.203.405 2.392.746 3.557Z" fill="#263238"/><path d="M159.658 36.767a1.932 1.932 0 0 0-2.381-.268" stroke="#263238" stroke-width=".933" stroke-linecap="round" stroke-linejoin="round"/><path d="M165.71 51.477v-.085c-.016.037-.032.064 0 .085Z" fill="#fff" stroke="#263238" stroke-width=".933" stroke-linecap="round" stroke-linejoin="round"/><path d="m171.464 57.055-3.771 3.484.07-5.221a4.644 4.644 0 0 0-.547-2.264 4.688 4.688 0 0 0-1.575-1.721l.142 13.74c3.704.233 7.003-6.997 7.003-6.997a2.011 2.011 0 0 0-1.322-1.021Z" fill="#fff"/><path opacity=".1" d="M167.114 63.387c-.56.051-.687-1.015-.679-2.053-.157.39-.261.8-.31 1.217a57.268 57.268 0 0 0-.029 3.356c4.217-1.903 4.269-3.6 5.351-5.331-.689.871-3.253 2.712-4.333 2.811Z" fill="#000"/><path d="m171.464 57.055-3.771 3.484.07-5.221a4.644 4.644 0 0 0-.547-2.264 4.688 4.688 0 0 0-1.575-1.721l.142 13.74c3.704.233 7.003-6.997 7.003-6.997a2.011 2.011 0 0 0-1.322-1.021v0Z" stroke="#263238" stroke-width=".933" stroke-linecap="round" stroke-linejoin="round"/><path d="m170.664 57.505.827-.78 1.813 1.238-.528.874-2.112-1.332Z" fill="#E8E8E8" stroke="#263238" stroke-width=".933" stroke-linecap="round" stroke-linejoin="round"/><path d="M167.129 57.888c-1.519 6.7-.765 11.103-.765 11.103s-3.665 2.586-11.371.394c0 0 1.401-3.465 1.024-6.108-.229-1.626-1.765-7.474-1.765-7.474s-.727-2.557-.393-4.62c.644-.416 2.023-.917 4.46-1.094.041-.136.069-.274.084-.415.077-.682.094-1.369.051-2.053a26.603 26.603 0 0 0-.102-1.445h2.941s.038.74.132 1.608c.051.512.124 1.072.215 1.555.046.241.104.48.175.715 2.936.44 4.04 1.201 4.253 1.863.999 2.986 1.384 4.54 1.061 5.971Z" fill="#fff" stroke="#263238" stroke-width=".933" stroke-linecap="round" stroke-linejoin="round"/><path d="M161.433 48.256c-.24.536-.539.96-1.575.954-.771 0-1.466-.678-1.544-.938.084-.587 0-.804-.035-1.468.991-.028 1.982.03 2.963.171.042.43.106.858.191 1.281Z" fill="#263238"/><path d="M163.389 42.518v-.64c-.218-1.04-1.511-1.094-2.106-1.091a4.6 4.6 0 0 1-1.837-.319c.191.455.508.847.913 1.131-2.214-.49-2.386-1.653-2.303-2.28-.786 2.736-1.807 2.85-1.807 2.85s0 .245.046.639a1.125 1.125 0 0 0-.87 1.187 1.107 1.107 0 0 0 1.077 1.12.94.94 0 0 0 .173-.024c.468 1.812 1.43 3.782 3.399 3.704 1.969-.078 2.771-2.12 3.089-3.964a.965.965 0 0 0 .175 0 1.11 1.11 0 0 0 .994-1.203 1.115 1.115 0 0 0-.266-.728 1.128 1.128 0 0 0-.677-.382Z" fill="#fff" stroke="#263238" stroke-width=".933" stroke-linecap="round" stroke-linejoin="round"/><path d="m159.446 45.587.34.244a.245.245 0 0 0 .296 0l.312-.239M160.739 44.062s.42-.552 1.258-.163M158.907 44.062s-.417-.552-1.258-.163M160.754 46.56a1.412 1.412 0 0 1-1.656.067" stroke="#263238" stroke-width=".933" stroke-linecap="round" stroke-linejoin="round"/><path d="M164.313 92.961a8.676 8.676 0 0 1-.334.866M160.38 73.432l.878.783a4.497 4.497 0 0 1 1.457 2.68c.751 4.757 1.958 9.648 1.81 14.815" stroke="#fff" stroke-width=".933" stroke-linecap="round" stroke-linejoin="round"/><path d="m163.704 73.571-1.392 1.98.175-.243" stroke="#fff" stroke-width=".933" stroke-linecap="round" stroke-linejoin="round"/><path d="m158.202 65.625.399.408M155.317 60.01a13.696 13.696 0 0 0 2.198 4.752" stroke="#263238" stroke-width=".933" stroke-linecap="round" stroke-linejoin="round"/><path d="m155.394 41.888-.298.011.042 1.058.299-.012-.043-1.057ZM164.512 41.506l-.299.012.043 1.057.298-.012-.042-1.057Z" fill="#fff" stroke="#263238" stroke-width=".933" stroke-linecap="round" stroke-linejoin="round"/><path d="M159.615 37.086a4.918 4.918 0 0 0-3.345 1.502 4.87 4.87 0 0 0-1.363 3.392.201.201 0 0 0 .015.068.176.176 0 0 0 .171.105h.315a.18.18 0 0 0 .122-.055.178.178 0 0 0 .048-.124 4.203 4.203 0 0 1 1.191-2.902 4.248 4.248 0 0 1 5.845-.233 4.212 4.212 0 0 1 1.421 2.797.176.176 0 0 0 .183.164h.315a.178.178 0 0 0 .125-.058.178.178 0 0 0 .045-.13 4.873 4.873 0 0 0-1.622-3.289 4.918 4.918 0 0 0-3.466-1.237ZM155.945 42.534h-.07a1.554 1.554 0 0 0-1.075.495 1.534 1.534 0 0 0 .089 2.176c.302.277.702.423 1.112.406h.068l-.124-3.077Z" fill="#E8E8E8" stroke="#263238" stroke-width=".933" stroke-linecap="round" stroke-linejoin="round"/><path d="M156.363 44.054c.045 1.142.126 1.876-.27 1.9-.396.024-.563-.721-.608-1.876-.046-1.155.059-1.876.455-1.903.396-.027.377.737.423 1.879Z" fill="#fff" stroke="#263238" stroke-width=".933" stroke-linecap="round" stroke-linejoin="round"/><path d="M163.729 42.223h.07a1.554 1.554 0 0 1 1.466.893 1.534 1.534 0 0 1-.756 2.043 1.552 1.552 0 0 1-.587.141h-.07l-.123-3.077Z" fill="#E8E8E8" stroke="#263238" stroke-width=".933" stroke-linecap="round" stroke-linejoin="round"/><path d="M163.422 43.773c.045 1.141.026 1.875.422 1.875.396 0 .501-.763.456-1.905-.046-1.142-.213-1.876-.606-1.863-.394.014-.318.75-.272 1.892Z" fill="#fff" stroke="#263238" stroke-width=".933" stroke-linecap="round" stroke-linejoin="round"/><path d="M157.067 43.049s1.027-.844 1.999-.08M162.7 42.88s-1.078-.758-1.999.08" stroke="#263238" stroke-width=".933" stroke-linecap="round" stroke-linejoin="round"/><path d="M157.932 49.717s.615 1.533 2.893 1.876c0 0-.91 1.876-2.155 1.139-1.489-.88-1.774-2.704-1.774-2.704l1.036-.311Z" fill="#E8E8E8" stroke="#263238" stroke-width=".933" stroke-linecap="round" stroke-linejoin="round"/><path d="M162.107 49.907c.009.408-.128.806-.385 1.124a1.745 1.745 0 0 1-1.021.615s1.107 1.807 2.015.804c.907-1.002.202-2.366.202-2.366l-.811-.177ZM161.601 55.227a.271.271 0 0 1-.045.149.273.273 0 0 1-.277.114.269.269 0 1 1 .322-.263ZM161.966 60.504a.264.264 0 0 1-.166.247.269.269 0 0 1-.253-.47.273.273 0 0 1 .341.033c.05.05.078.119.078.19ZM162.311 65.907a.272.272 0 0 1-.045.148.273.273 0 0 1-.277.114.269.269 0 1 1 .322-.263Z" fill="#E8E8E8" stroke="#263238" stroke-width=".933" stroke-linecap="round" stroke-linejoin="round"/><path d="M186.045 29.976h-54.572a.457.457 0 0 0-.458.455v.979c0 .251.205.455.458.455h54.572a.457.457 0 0 0 .458-.455v-.979a.457.457 0 0 0-.458-.455Z" fill="#fff"/><path d="M185.954 31.865h-54.39M131.564 29.976h54.39" stroke="#263238" stroke-width=".933" stroke-linecap="round" stroke-linejoin="round"/><path d="M148.495 42.69s-2.249-.314-2.37.287c-.121.6-.054 1.562.334 1.876.733.594.598 1.707.598 1.707l1.885-.183.049-.938c.097-.306.27-.582.503-.804.679-.635.41-1.34.294-2.19-.116-.849-.679-.47-.725-.031-.013.392.019.784.097 1.168l-.665-.892Z" fill="#fff" stroke="#263238" stroke-width=".933" stroke-linecap="round" stroke-linejoin="round"/><path d="M149.022 43.515s-.539.11-.964.869l.964-.869Z" fill="#fff"/><path d="M149.022 43.515s-.539.11-.964.869" stroke="#263238" stroke-width=".933" stroke-linecap="round" stroke-linejoin="round"/><path d="M149.023 43.714h-2.726a1.191 1.191 0 0 1-.98-.467.798.798 0 0 1 0-.932l1.363-1.992a1.264 1.264 0 0 1 1.971 0l1.366 1.992a.803.803 0 0 1 0 .932 1.186 1.186 0 0 1-.994.467Zm-3.232-1.18a.419.419 0 0 0 0 .488.607.607 0 0 0 .509.241h2.723a.618.618 0 0 0 .509-.24.411.411 0 0 0 0-.489l-1.363-1.988a.609.609 0 0 0-.514-.247.609.609 0 0 0-.512.247l-1.366 1.991.014-.003Z" fill="#263238"/><path d="M146.843 42.717c.14.707.054.959-.269.921-.323-.037-.649-.905-.202-1.104.447-.198.808-.35.808-.35a1.048 1.048 0 0 1 .937-.03c.641-.223.754.24.754.24s.464 1.34.078 1.386c-.385.046-.702-1.117-.702-1.117s.482 1.276.04 1.297c-.442.021-.698-1.238-.698-1.238s.289 1.107-.129 1.144c-.417.038-.617-1.15-.617-1.15ZM147.862 31.359h-.442v8.798h.442V31.36Z" fill="#fff" stroke="#263238" stroke-width=".933" stroke-linecap="round" stroke-linejoin="round"/><path d="m148.106 40.02-.288.421a.205.205 0 0 1-.318 0l-.285-.42c-.07-.1.019-.223.156-.223h.577c.14 0 .226.134.158.222ZM147.897 37.067h-.471a.234.234 0 0 0-.235.233v1.951c0 .13.105.233.235.233h.471a.234.234 0 0 0 .234-.233v-1.95a.234.234 0 0 0-.234-.234ZM147.897 29.673h-.471a.234.234 0 0 0-.235.233v1.951c0 .129.105.233.235.233h.471a.234.234 0 0 0 .234-.233v-1.95a.234.234 0 0 0-.234-.234Z" fill="#fff" stroke="#263238" stroke-width=".933" stroke-linecap="round" stroke-linejoin="round"/><path d="M142.616 43.714h-2.726a1.189 1.189 0 0 1-.98-.467.797.797 0 0 1 0-.932l1.362-1.992a1.258 1.258 0 0 1 .987-.474 1.27 1.27 0 0 1 .988.474l1.362 1.992a.798.798 0 0 1 0 .932 1.183 1.183 0 0 1-.993.466Zm-3.232-1.18a.412.412 0 0 0 0 .488.608.608 0 0 0 .509.241h2.725a.623.623 0 0 0 .512-.241.419.419 0 0 0 0-.488l-1.363-1.988a.614.614 0 0 0-.514-.247.61.61 0 0 0-.512.247l-1.366 1.99.009-.002Z" fill="#263238"/><path d="M141.454 31.359h-.441v8.798h.441V31.36Z" fill="#fff" stroke="#263238" stroke-width=".933" stroke-linecap="round" stroke-linejoin="round"/><path d="m141.699 40.02-.299.421a.205.205 0 0 1-.318 0l-.285-.42c-.07-.1.019-.223.156-.223h.576c.141 0 .237.134.17.222ZM141.49 37.067h-.472a.234.234 0 0 0-.234.233v1.951c0 .13.105.233.234.233h.472a.234.234 0 0 0 .234-.233v-1.95a.234.234 0 0 0-.234-.234ZM141.49 29.673h-.472a.234.234 0 0 0-.234.233v1.951c0 .129.105.233.234.233h.472a.234.234 0 0 0 .234-.233v-1.95a.234.234 0 0 0-.234-.234Z" fill="#fff" stroke="#263238" stroke-width=".933" stroke-linecap="round" stroke-linejoin="round"/><path d="M170.383 43.714h-2.725a1.188 1.188 0 0 1-.981-.467.805.805 0 0 1 0-.932l1.363-1.992a1.265 1.265 0 0 1 1.533-.35c.171.083.321.203.438.35l1.363 1.992a.797.797 0 0 1 0 .932 1.18 1.18 0 0 1-.991.467Zm-3.232-1.18a.411.411 0 0 0 0 .488.616.616 0 0 0 .509.241h2.726a.618.618 0 0 0 .509-.24.411.411 0 0 0 0-.489l-1.363-1.988a.651.651 0 0 0-.514-.247.66.66 0 0 0-.515.247l-1.363 1.991.011-.003Z" fill="#263238"/><path d="M169.22 31.359h-.442v8.798h.442V31.36Z" fill="#fff" stroke="#263238" stroke-width=".933" stroke-linecap="round" stroke-linejoin="round"/><path d="m169.465 40.02-.285.421a.2.2 0 0 1-.159.077.205.205 0 0 1-.159-.077l-.286-.42c-.07-.1.019-.223.156-.223h.577c.137 0 .226.134.156.222ZM169.257 37.067h-.471a.234.234 0 0 0-.234.233v1.951c0 .13.105.233.234.233h.471c.13 0 .235-.104.235-.233v-1.95a.234.234 0 0 0-.235-.234ZM169.257 29.673h-.471a.234.234 0 0 0-.234.233v1.951c0 .129.105.233.234.233h.471c.13 0 .235-.104.235-.233v-1.95a.234.234 0 0 0-.235-.234Z" fill="#fff" stroke="#263238" stroke-width=".933" stroke-linecap="round" stroke-linejoin="round"/><path d="M176.489 43.714h-2.726a1.189 1.189 0 0 1-.98-.467.797.797 0 0 1 0-.932l1.362-1.992a1.267 1.267 0 0 1 1.536-.35c.171.083.321.202.439.35l1.362 1.992a.798.798 0 0 1 0 .932 1.183 1.183 0 0 1-.993.466Zm-3.232-1.18a.412.412 0 0 0 0 .488.608.608 0 0 0 .509.241h2.725a.623.623 0 0 0 .512-.241.419.419 0 0 0 0-.488l-1.363-1.988a.614.614 0 0 0-.514-.247.61.61 0 0 0-.512.247l-1.365 1.99.008-.002Z" fill="#263238"/><path d="M175.328 31.359h-.441v8.798h.441V31.36Z" fill="#fff" stroke="#263238" stroke-width=".933" stroke-linecap="round" stroke-linejoin="round"/><path d="m175.574 40.02-.288.421a.2.2 0 0 1-.159.077.2.2 0 0 1-.159-.077l-.285-.42c-.07-.1.019-.223.156-.223h.576c.14 0 .227.134.159.222ZM175.364 37.067h-.471a.234.234 0 0 0-.235.233v1.951c0 .13.105.233.235.233h.471a.234.234 0 0 0 .234-.233v-1.95a.234.234 0 0 0-.234-.234ZM175.364 29.673h-.471a.234.234 0 0 0-.235.233v1.951c0 .129.105.233.235.233h.471a.234.234 0 0 0 .234-.233v-1.95a.234.234 0 0 0-.234-.234Z" fill="#fff" stroke="#263238" stroke-width=".933" stroke-linecap="round" stroke-linejoin="round"/><path d="m149.233 45.954.143 1.144-2.931.137.245-1.147 2.543-.134Z" fill="#E8E8E8" stroke="#263238" stroke-width=".933" stroke-linecap="round" stroke-linejoin="round"/><path d="M154.202 55.573s-5.087 4.655-6.262 4.727c-.288.019-.538.198-.781.035-.538-.364-1.317-1.136-1.204-4.272.06-1.715 1.102-8.863 1.102-8.863l1.885-.083.458 8.04c1.616-1.667 4.425-3.977 4.428-3.977.878 2.793.374 4.393.374 4.393Z" fill="#fff" stroke="#263238" stroke-width=".933" stroke-linecap="round" stroke-linejoin="round"/><path d="M167.033 62.045c.127-.556.368-1.08.709-1.539l-.709 1.539Z" fill="#fff"/><path d="M167.033 62.045c.127-.556.368-1.08.709-1.539M148.823 57.05c.197-.09.665-.96.569-2.448" stroke="#263238" stroke-width=".933" stroke-linecap="round" stroke-linejoin="round"/><path d="M150.63 37.957v-3.203a.587.587 0 0 1 .587-.584h5.053a.591.591 0 0 1 .587.584v3.203a.583.583 0 0 1-.587.584h-1.759l.14 1.22h-.908v1.152l-1.077-1.876h.881l-.092-.493h-2.241a.586.586 0 0 1-.584-.587Z" fill="#fff" stroke="#263238" stroke-width=".933" stroke-linecap="round" stroke-linejoin="round"/><path d="M155.01 35.266h-3.415M155.893 36.175h-4.298M155.231 37.08h-3.636" stroke="#263238" stroke-width=".933" stroke-linecap="round" stroke-linejoin="round"/><path d="M38.256 117.223c6.945 0 12.575-.824 12.575-1.841s-5.63-1.841-12.575-1.841c-6.945 0-12.575.824-12.575 1.841s5.63 1.841 12.575 1.841ZM37.154 86.041c12.095 0 21.9-9.756 21.9-21.79 0-12.036-9.805-21.792-21.9-21.792-12.094 0-21.9 9.756-21.9 21.791s9.806 21.791 21.9 21.791Z" fill="#E8E8E8"/><path d="M27.055 78.5s.557 3.216-1.325 6.831h23.542s-1.077-1.685-2.206-6.831H27.055Z" fill="#fff" stroke="#263238" stroke-width=".874" stroke-linecap="round" stroke-linejoin="round"/><path d="M32.422 79.242a7.043 7.043 0 0 0-3.57 1.314 6.992 6.992 0 0 0-2.356 2.974c-.253.611-.517 1.23-.767 1.81-1.433 3.298-.078 8.098 3.585 8.098h16.795c3.321 0 4.229-4.183 3.434-7.335-.511-2.026-1.543-4.06-3.304-5.486-2.354-1.916-9.233-1.74-13.817-1.375Z" fill="#263238" stroke="#263238" stroke-width=".874" stroke-linecap="round" stroke-linejoin="round"/><path d="M16.386 75.702s-3.011 1.812-3.11 2.798h3.692l1.468-1.048-.496 1.053h1.123s1.194-.922 1.258-1.943l-.121-.86-2.155-.954-1.659.954Z" fill="#fff" stroke="#263238" stroke-width=".874" stroke-linecap="round" stroke-linejoin="round"/><path d="M51.658 69.048s-.482-3.155-1.54-7.697c-1.059-4.543-3.128-4.9-3.128-4.9h-.018c-2.694-1.152-9.696-1.773-9.696-1.773h-.324s-7.018.621-9.696 1.774h-.018s-2.088.364-3.146 4.899c-1.059 4.534-1.543 7.697-1.543 7.697s-1.913.514-5.355 4.824c-.54.683-1 1.426-1.37 2.213 0 0 2.644-.865 4.497.461 0 0 6.07-2.562 6.375-5.263 0-.097.024-.204.038-.32.172 4.101.32 7.526.32 7.526h20.098s.15-3.425.323-7.525c0 .115.024.222.035.319.307 2.701 7.027 5.73 7.027 5.73 1.843-2.82 4.517-1.263 4.517-1.263l-7.396-6.702Z" fill="#fff"/><path opacity=".3" d="M26.696 71.288c0-.08.022-.171.033-.268l-.44-9.49s-1.211.247-.864 3.16c.348 2.913 1.078 2.412.67 3.535-.406 1.123-1.984-.164-2.507.804-.522.967 2.92.76 1.498 3.253-1.422 2.493-4.765 4.288-4.765 4.288s6.074-2.575 6.375-5.282ZM47.605 71.288c0-.08.791.059 0 0l.24-8.123s-.06 3.929.363 5.06c.423 1.13 1.985-.164 2.505.804.52.967-2.92.76-1.495 3.253 1.425 2.493 4.762 4.288 4.762 4.288s-6.069-2.575-6.375-5.282ZM47.297 73.137l-.231 5.36h-18.07c12.12 0 18.315-5.36 18.315-5.36h-.014Z" fill="#000"/><path d="M51.658 69.048s-.482-3.155-1.54-7.697c-1.059-4.543-3.128-4.9-3.128-4.9h-.018c-2.694-1.152-9.696-1.773-9.696-1.773h-.324s-7.018.621-9.696 1.774h-.018s-2.088.364-3.146 4.899c-1.059 4.534-1.543 7.697-1.543 7.697s-1.913.514-5.355 4.824c-.54.683-1 1.426-1.37 2.213v0s2.644-.865 4.497.461c0 0 6.07-2.562 6.375-5.263 0-.097.024-.204.038-.32.172 4.101.32 7.526.32 7.526h20.098s.15-3.425.323-7.525c0 .115.024.222.035.319.307 2.701 7.027 5.73 7.027 5.73 1.843-2.82 4.517-1.263 4.517-1.263l-7.396-6.702Z" stroke="#263238" stroke-width=".874" stroke-linecap="round" stroke-linejoin="round"/><path d="M23.191 69.029c.97-.049 1.92.281 2.648.92M25.085 61.814s1.244.268 1.53 6.288L26.24 60.2M26.632 68.938l.057 1.22M51.017 69.029a3.737 3.737 0 0 0-2.648.906M47.893 61.814c.023-.536.048-1.072.075-1.608" stroke="#263238" stroke-width=".874" stroke-linecap="round" stroke-linejoin="round"/><path d="M40.876 55.111c-.326 1.625-1.904 2.212-3.806 2.212-1.901 0-3.474-.585-3.805-2.203h.075a.986.986 0 0 0 .824-.745.742.742 0 0 0 .04-.24v-1.904h5.818v1.905a.984.984 0 0 0 .854.976Z" fill="#fff"/><path d="M39.974 53.656c-.964.944-2.038 1.53-3.075 1.576-1.078.049-2.328-.83-2.837-1.694a.802.802 0 0 0 .03-.23v-.584l5.818.061v.523c0 .123.148.268.064.348Z" fill="#263238"/><path d="M40.876 55.111c-.326 1.625-1.904 2.212-3.806 2.212-1.901 0-3.474-.585-3.805-2.203h.075a.986.986 0 0 0 .824-.745.742.742 0 0 0 .04-.239V52.23h5.818v1.906a.984.984 0 0 0 .854.975v0Z" stroke="#263238" stroke-width=".874" stroke-linecap="round" stroke-linejoin="round"/><path d="M32.821 48.138s-2.017-2.27-1.753-5.397c.264-3.128 2.844-3.128 2.844-3.128s3.11-2.73 6.582-1.02c3.472 1.709 3.232 7.637.663 9.111l-8.336.434Z" fill="#263238"/><path d="M41.714 46.61c.027-.52.025-.84.025-.84-.232-1.384-1.932-1.523-2.713-1.547-3.272-.11-4.134-2.107-4.134-2.107-1.985-.592-2.548 3.653-2.548 3.653s0 .322.027.842c-.35.066-.665.256-.887.535a1.474 1.474 0 0 0-.32.981c0 .847.614 1.53 1.374 1.53.077 0 .154-.007.229-.02l.355 1.993c.068.448.49 1.506.87 1.758.809.536 2.088 1.3 3.05 1.3.829 0 1.992-.68 2.852-1.144.479-.268 1.007-1.295 1.053-1.833l.223-2.016c.127-.006.252-.018.377-.037.757 0 1.374-.684 1.374-1.53a1.475 1.475 0 0 0-.32-.982 1.488 1.488 0 0 0-.887-.535Z" fill="#fff" stroke="#263238" stroke-width=".874" stroke-linecap="round" stroke-linejoin="round"/><path d="M31.692 45.324h-.356v1.26h.356v-1.26ZM42.555 45.324h-.356v1.26h.356v-1.26Z" fill="#fff" stroke="#263238" stroke-width=".874" stroke-linecap="round" stroke-linejoin="round"/><path d="M36.944 39.822a5.854 5.854 0 0 0-4.054 1.627 5.797 5.797 0 0 0-1.782 3.972.205.205 0 0 0 .128.198.21.21 0 0 0 .082.016h.377a.21.21 0 0 0 .21-.204 5.01 5.01 0 0 1 1.555-3.398 5.058 5.058 0 0 1 3.484-1.39c1.298 0 2.545.498 3.484 1.39a5.009 5.009 0 0 1 1.555 3.398.211.211 0 0 0 .213.204h.374a.212.212 0 0 0 .199-.132.208.208 0 0 0 .014-.082A5.8 5.8 0 0 0 41 41.449a5.858 5.858 0 0 0-4.055-1.627Z" fill="#fff" stroke="#263238" stroke-width=".874" stroke-linecap="round" stroke-linejoin="round"/><path d="M32.299 46.131h-.081c-.477.018-.928.22-1.259.561a1.831 1.831 0 0 0 0 2.547c.33.342.782.543 1.259.56h.08v-3.668Z" fill="#263238" stroke="#263238" stroke-width=".874" stroke-miterlimit="10"/><path d="M32.737 47.972c0 1.359.06 2.243-.412 2.243-.471 0-.633-.884-.633-2.243s.162-2.246.633-2.246c.472 0 .412.874.412 2.246Z" fill="#fff" stroke="#263238" stroke-width=".874" stroke-linecap="round" stroke-linejoin="round"/><path d="M41.593 46.131h.08c.477.018.928.22 1.26.561a1.83 1.83 0 0 1 0 2.547c-.331.342-.783.543-1.26.56h-.08v-3.668Z" fill="#263238" stroke="#263238" stroke-width=".874" stroke-miterlimit="10"/><path d="M41.151 47.972c0 1.359-.056 2.243.415 2.243.472 0 .633-.884.633-2.243s-.161-2.246-.633-2.246c-.471 0-.415.874-.415 2.246Z" fill="#fff" stroke="#263238" stroke-width=".874" stroke-linecap="round" stroke-linejoin="round"/><path d="M33.793 48.302s.768.94 2.206.198" stroke="#263238" stroke-width=".874" stroke-linecap="round" stroke-linejoin="round"/><path d="M35.998 51.96a1.865 1.865 0 0 0 2.184 0" stroke="#263238" stroke-width=".75" stroke-linecap="round" stroke-linejoin="round"/><path d="M33.58 47.04s1.392-1.056 2.632 0M40.419 47.074s-1.393-1.072-2.632 0" stroke="#263238" stroke-width=".874" stroke-linecap="round" stroke-linejoin="round"/><path d="M38.102 50.48s.124.687-1.14.67c-.309 0-.872-.22-.89-.67" stroke="#263238" stroke-width=".75" stroke-linecap="round" stroke-linejoin="round"/><path d="M34.095 48.55c.116.229.377.491.961.505.585.013.687-.217.698-.443a1.773 1.773 0 0 1-1.66-.061Z" fill="#263238"/><path d="M40.217 48.302s-.768.94-2.206.198" stroke="#263238" stroke-width=".874" stroke-linecap="round" stroke-linejoin="round"/><path d="M39.915 48.55c-.116.229-.377.491-.962.505-.584.013-.686-.217-.697-.443a1.772 1.772 0 0 0 1.659-.061Z" fill="#263238"/><path d="M34.574 38.308s-.709.394-.63 1.514c0 0-.248-.756-1.159-.426" stroke="#263238" stroke-width=".874" stroke-linecap="round" stroke-linejoin="round"/><path d="M37.103 58.156a4.52 4.52 0 0 0 2.593-.818 4.482 4.482 0 0 0 1.646-2.154c-.245-.037-.487-.07-.722-.102a4.117 4.117 0 0 1-1.501 1.435 4.141 4.141 0 0 1-5.531-1.435c-.234.032-.477.065-.722.102.313.87.887 1.621 1.646 2.153a4.518 4.518 0 0 0 2.59.82Z" fill="#263238" stroke="#263238" stroke-width=".874" stroke-linecap="round" stroke-linejoin="round"/><path d="M47.475 70.975c.118-2.613.237-5.226.358-7.84" stroke="#263238" stroke-width=".874" stroke-linecap="round" stroke-linejoin="round"/><path d="M47.564 44.276V41.39a.534.534 0 0 0-.54-.536h-4.54a.54.54 0 0 0-.539.536v2.886a.535.535 0 0 0 .539.536h1.584l-.127 1.1h.808v1.036l.967-1.69h-.795l.084-.446h2.017a.541.541 0 0 0 .5-.33.532.532 0 0 0 .042-.206Z" fill="#fff" stroke="#263238" stroke-width=".874" stroke-linecap="round" stroke-linejoin="round"/><path d="M42.823 41.854h3.079M42.823 42.671h3.87M42.823 43.488h3.275" stroke="#263238" stroke-width=".874" stroke-linecap="round" stroke-linejoin="round"/><path d="M61.515 77.104c0 .852-1.346 1.385-3 1.385s-3-.536-3-1.385c0-.85 1.346-1.547 3-1.547s3 .692 3 1.547Z" fill="#fff" stroke="#263238" stroke-width=".874" stroke-linecap="round" stroke-linejoin="round"/><path d="M56.573 78.181c.08-.019.145-.469-.585-.804-.506-.23-.52-.474-.229-.775.291-.3.787-.552 1.17-.442.621.177 1.033 1.466 1.31 1.188.418-.108-.085-1.29-.831-1.678 1.346.332 1.411 1.876 2.03 1.752.474-.09-.344-1.624-1.053-2.076.454.21.851.525 1.159.919.45.651.5.87.808.777.398-.126-.553-1.557-.671-1.713.598.236.71.735.894.936.183.2.27.536.522.404.254-.13.02-.597-.15-.87-.808-1.3-2.155-1.517-3.437-1.357-1.013.129-2.176.552-2.793 1.356a1.254 1.254 0 0 0-.086 1.42c.215.454.986 1.177 1.942.963Z" fill="#fff" stroke="#263238" stroke-width=".874" stroke-linecap="round" stroke-linejoin="round"/><path d="M62.302 78.5H12.736a.266.266 0 0 0-.266.265v.426c0 .147.12.266.266.266h49.566a.266.266 0 0 0 .266-.266v-.426a.266.266 0 0 0-.266-.265Z" fill="#BFBFBF" stroke="#263238" stroke-width=".874" stroke-miterlimit="10"/><path d="m14.19 78.5-3.646-11.028a.29.29 0 0 1 .27-.38h11.519L26.435 78.5H14.19Z" fill="#263238"/><path d="m22.648 67.091 3.77 10.768h10.1v.378a.267.267 0 0 1-.269.268H25.772l-3.628-10.969a.33.33 0 0 1 .313-.431l.19-.014Z" fill="#fff" stroke="#263238" stroke-width=".874" stroke-linecap="round" stroke-linejoin="round"/><path d="M17.3 72.797a1.016 1.016 0 0 0-.254-.501.58.58 0 0 1 .46-.204.937.937 0 0 1 .87.716.557.557 0 0 1-.306.665.566.566 0 0 1-.26.05.884.884 0 0 1-.56-.217.723.723 0 0 0 .05-.51Z" fill="#fff"/><path d="M40.637 78.5h3.681a3.797 3.797 0 0 0 1.56-3.112v-1.723a.495.495 0 0 0-.31-.46.502.502 0 0 0-.191-.038h-5.785a.502.502 0 0 0-.462.308.494.494 0 0 0-.037.19v1.723a3.774 3.774 0 0 0 1.544 3.112Z" fill="#fff" stroke="#263238" stroke-width=".874" stroke-linecap="round" stroke-linejoin="round"/><path d="M46.923 73.901a1.065 1.065 0 0 0-1.045-.048v.622a.665.665 0 0 1 .46.09c.52.3.41.915.046 1.539a1.67 1.67 0 0 1-.808.804c-.106.258-.24.503-.401.732.692.15 1.325-.434 1.82-1.287.582-1.002.757-1.975-.072-2.452Z" fill="#fff" stroke="#263238" stroke-width=".874" stroke-linecap="round" stroke-linejoin="round"/><path d="M42.554 70.452c.134-.434.2-.886.197-1.34 0-2.52-2.38-2.817-2.38-5.679M40.865 72.674a3.778 3.778 0 0 0 1.096-1.032M42.349 65.834a1.374 1.374 0 0 1-.16-.804M44.202 69.372c-.121-.788-.576-1.528-1.026-2.2M42.823 72.703s.787-.33 1.218-1.817" stroke="#263238" stroke-width=".874" stroke-linecap="round" stroke-linejoin="round"/><path d="M47.634 93.43H27.466a2.66 2.66 0 0 0-2.666 2.653v13.266a2.66 2.66 0 0 0 2.666 2.654h20.168a2.66 2.66 0 0 0 2.666-2.654V96.083a2.66 2.66 0 0 0-2.666-2.653Z" fill="#fff" stroke="#263238" stroke-width=".874" stroke-miterlimit="10"/><path d="m31.175 106.208.304 5.299.035.045a2.554 2.554 0 0 0 2.08 1.025 2.563 2.563 0 0 0 2.057-1.07l.113-5.299h-4.59Z" fill="#fff" stroke="#263238" stroke-width=".874" stroke-linecap="round" stroke-linejoin="round"/><path d="M36.772 116.685a17.99 17.99 0 0 1-6.176 0 2.933 2.933 0 0 1-.488-.633 2.652 2.652 0 0 1-.1-2.412l1.232-2.184 4.877.054 1.1 1.993a2.672 2.672 0 0 1-.29 3.018c-.048.057-.1.112-.155.164Z" fill="#BFBFBF" stroke="#263238" stroke-width=".874" stroke-miterlimit="10"/><path d="M35.573 113.935c.302.132.59.294.86.482l-.86-.482Z" fill="#BFBFBF"/><path d="M35.573 113.935c.302.132.59.294.86.482" stroke="#263238" stroke-width=".874" stroke-miterlimit="10"/><path d="M30.973 114.417a4.924 4.924 0 0 1 3.7-.764" fill="#BFBFBF"/><path d="M30.973 114.417a4.924 4.924 0 0 1 3.7-.764" stroke="#263238" stroke-width=".874" stroke-miterlimit="10"/><path d="m28.549 84.342 2.154 24.571h5.573s.552-15.008.902-24.753a4.268 4.268 0 0 0-1.204-3.146 4.309 4.309 0 0 0-3.116-1.31 4.328 4.328 0 0 0-3.179 1.377 4.283 4.283 0 0 0-1.13 3.261Z" fill="#263238"/><path d="M34.094 79.877a4.348 4.348 0 0 0-1.25-.174v0a4.329 4.329 0 0 0-3.17 1.383 4.284 4.284 0 0 0-1.125 3.256l.765 9.088M36.422 81.552a4.5 4.5 0 0 0-.773-.841s-.337-.268-.488-.354M36.81 93.43c.11-3.042.282-6.6.377-9.27a4.27 4.27 0 0 0-.377-1.927" stroke="#fff" stroke-width=".874" stroke-linecap="round" stroke-linejoin="round"/><path d="m40.24 106.208.305 5.299.035.045a2.555 2.555 0 0 0 2.08 1.025 2.563 2.563 0 0 0 2.057-1.07l.113-5.299h-4.59Z" fill="#fff" stroke="#263238" stroke-width=".874" stroke-linecap="round" stroke-linejoin="round"/><path d="M45.838 116.685a17.99 17.99 0 0 1-6.176 0 2.9 2.9 0 0 1-.485-.633 2.641 2.641 0 0 1-.102-2.412l1.233-2.184 4.875.054 1.1 1.993a2.672 2.672 0 0 1-.289 3.018c-.05.057-.101.112-.156.164Z" fill="#BFBFBF" stroke="#263238" stroke-width=".874" stroke-miterlimit="10"/><path d="M44.639 113.935c.302.131.59.293.859.482l-.86-.482Z" fill="#BFBFBF"/><path d="M44.639 113.935c.302.131.59.293.859.482" stroke="#263238" stroke-width=".874" stroke-miterlimit="10"/><path d="M40.044 114.417a4.943 4.943 0 0 1 1.773-.751 4.941 4.941 0 0 1 1.928-.013" fill="#BFBFBF"/><path d="M40.044 114.417a4.943 4.943 0 0 1 1.773-.751 4.941 4.941 0 0 1 1.928-.013" stroke="#263238" stroke-width=".874" stroke-miterlimit="10"/><path d="m37.623 84.342 2.155 24.571h5.572s.552-15.008.905-24.753a4.281 4.281 0 0 0-1.216-3.15 4.323 4.323 0 0 0-3.126-1.307 4.327 4.327 0 0 0-3.166 1.385 4.283 4.283 0 0 0-1.124 3.254Z" fill="#263238"/><path d="M43.69 80.073a4.327 4.327 0 0 0-1.777-.37 4.328 4.328 0 0 0-3.166 1.385 4.283 4.283 0 0 0-1.124 3.254l.808 9.088M45.488 81.552a4.343 4.343 0 0 0-.773-.841M46.11 93.43c.11-3.042.048-6.6.145-9.27a4.282 4.282 0 0 0-.291-1.718" stroke="#fff" stroke-width=".874" stroke-linecap="round" stroke-linejoin="round"/><path d="M112.111 42.524V31.088a2.08 2.08 0 0 0-.614-1.474 2.101 2.101 0 0 0-1.482-.61H91.986a2.1 2.1 0 0 0-1.482.61 2.08 2.08 0 0 0-.613 1.474v11.436c0 .553.22 1.083.613 1.474a2.1 2.1 0 0 0 1.482.61h6.278l-.495 4.353H101v4.103l3.835-6.7h-3.146l.331-1.758h7.994a2.1 2.1 0 0 0 1.481-.61c.393-.39.614-.92.615-1.472Z" fill="#fff" stroke="#263238" stroke-width="1.025" stroke-linecap="round" stroke-linejoin="round"/><path d="M93.332 32.916h12.19M93.332 36.156h15.336M93.332 39.396h12.977" stroke="#263238" stroke-width="1.025" stroke-linecap="round" stroke-linejoin="round"/><path d="m125.881 91.49 10.892 3.612-2.702 2.691 5.042 5.017-10.892-3.613 2.702-2.69-5.042-5.017ZM76.12 91.49l-10.893 3.613 2.702 2.69-5.042 5.017 10.892-3.612-2.702-2.691 5.042-5.017ZM100.696 8.614 95.56 18.835h3.824v7.097l5.134-10.222h-3.822V8.614Z" fill="#E8E8E8" stroke="#263238" stroke-width="1.025" stroke-linecap="round" stroke-linejoin="round"/></svg>