<svg width="216" height="144" fill="none" xmlns="http://www.w3.org/2000/svg"><path d="M173.842 88.312s-3.539-1.967-3.801 2.489c-.262 4.455-.919 33.436-.919 33.436" stroke="#263238" stroke-width="2" stroke-linecap="round" stroke-linejoin="round"/><path d="M168.191 91.195s2.88 6.426 1.576 32.648" stroke="#263238" stroke-width="2" stroke-linecap="round" stroke-linejoin="round"/><path d="M171.04 89.208s-1.357.864-2.126-.124c-.769-.988.521-2.814-.616-3.591-1.138-.778-3.105.409-3.105.409s1.512.443 1.463 1.27c-.049.826-.777 1.152-.864.778-.086-.375-.821-2.18-2.05-1.423a3.045 3.045 0 0 0-1.414 1.93s2.859-.306 3.032.771c.173 1.077-1.172-.187-2.353-.256-1.18-.07-2.258.104-2.18.818a9.41 9.41 0 0 1-.112 1.89 3.505 3.505 0 0 1 2.304-.813c1.299.075 1.25.901.069.832-1.181-.069-2.195 1.054-2.195 1.054s1.078 1.84 2.446 2.75c1.368.91 1.86.577 2.016-.117.155-.694-.208-2.5.619-2.451.826.049-1.368 3.119-.314 3.3 1.054.182 1.903-.126 2.18-.82l.288-.695s-.369-1.797-.207-2.5c.161-.702.354.02.541.865.187.843.305 2.862.665 2.764.36-.098 1.515-1.57 1.786-2.145.271-.576-1.521-2.342-1.501-2.696.021-.354 1.403.32 1.619.688.156.28.298.569.423.864 0 0 .864-.541.841-2.2-.023-1.659-1.255-1.152-1.255-1.152Z" fill="#fff"/><path opacity=".3" d="M171.04 89.208s-1.357.864-2.126-.124c-.769-.988.521-2.814-.616-3.591-1.138-.778-3.105.409-3.105.409s1.512.443 1.463 1.27c-.049.826-.777 1.152-.864.778-.086-.375-.821-2.18-2.05-1.423a3.045 3.045 0 0 0-1.414 1.93s2.859-.306 3.032.771c.173 1.077-1.172-.187-2.353-.256-1.18-.07-2.258.104-2.18.818a9.41 9.41 0 0 1-.112 1.89 3.505 3.505 0 0 1 2.304-.813c1.299.075 1.25.901.069.832-1.181-.069-2.195 1.054-2.195 1.054s1.078 1.84 2.446 2.75c1.368.91 1.86.577 2.016-.117.155-.694-.208-2.5.619-2.451.826.049-1.368 3.119-.314 3.3 1.054.182 1.903-.126 2.18-.82l.288-.695s-.369-1.797-.207-2.5c.161-.702.354.02.541.865.187.843.305 2.862.665 2.764.36-.098 1.515-1.57 1.786-2.145.271-.576-1.521-2.342-1.501-2.696.021-.354 1.403.32 1.619.688.156.28.298.569.423.864 0 0 .864-.541.841-2.2-.023-1.659-1.255-1.152-1.255-1.152Z" fill="#263238"/><path d="M164.175 93.099c.884-1.092 2.183-2.57 3.274-3.275M163.149 94.43s.228-.317.597-.79M168.024 90.095s1.314 1.855 1.556 3.764M166.538 91.192s.369-.213.231 2.146M167.497 88.992s.749-.668.354-1.993M166.484 90.124l-.536-.98M165.358 91.123s-1.7-1.284-2.762-1.348" stroke="#263238" stroke-linecap="round" stroke-linejoin="round"/><path d="M175.867 85.709s-.055 1.947-1.576 2.042c-1.52.095-2.459-2.437-4.014-1.83-1.556.609-1.705 3.388-1.705 3.388s1.474-1.213 2.269-.6c.795.614.611 1.556.182 1.406-.43-.15-2.742-.665-2.82 1.08a3.687 3.687 0 0 0 .965 2.733s1.644-3.07 2.842-2.511c1.198.559-.987 1.045-1.863 2.18-.875 1.135-1.44 2.33-.665 2.742.65.404 1.258.873 1.814 1.4 0 0-.207-1.608.755-2.855.962-1.247 1.754-.636.881.499-.873 1.134-.441 2.914-.441 2.914s2.575.179 4.418-.576c1.843-.754 1.855-1.466 1.262-2.105-.594-.64-2.644-1.495-2.034-2.29.611-.794 2.189 3.497 3.091 2.564.901-.933 1.169-1.99.665-2.742l-.507-.752s-2.05-.864-2.644-1.495c-.593-.63.262-.342 1.233.044.97.386 3.07 1.644 3.22 1.218.149-.426-.539-2.592-.931-3.249-.391-.656-3.381-.075-3.72-.337-.34-.262 1.275-1.186 1.791-1.152.515.035 1.152.159 1.152.159s.046-1.23-1.63-2.342c-1.676-1.111-1.99.467-1.99.467Z" fill="#fff"/><path opacity=".2" d="M175.867 85.709s-.055 1.947-1.576 2.042c-1.52.095-2.459-2.437-4.014-1.83-1.556.609-1.705 3.388-1.705 3.388s1.474-1.213 2.269-.6c.795.614.611 1.556.182 1.406-.43-.15-2.742-.665-2.82 1.08a3.687 3.687 0 0 0 .965 2.733s1.644-3.07 2.842-2.511c1.198.559-.987 1.045-1.863 2.18-.875 1.135-1.44 2.33-.665 2.742.65.404 1.258.873 1.814 1.4 0 0-.207-1.608.755-2.855.962-1.247 1.754-.636.881.499-.873 1.134-.441 2.914-.441 2.914s2.575.179 4.418-.576c1.843-.754 1.855-1.466 1.262-2.105-.594-.64-2.644-1.495-2.034-2.29.611-.794 2.189 3.497 3.091 2.564.901-.933 1.169-1.99.665-2.742l-.507-.752s-2.05-.864-2.644-1.495c-.593-.63.262-.342 1.233.044.97.386 3.07 1.644 3.22 1.218.149-.426-.539-2.592-.931-3.249-.391-.656-3.381-.075-3.72-.337-.34-.262 1.275-1.186 1.791-1.152.515.035 1.152.159 1.152.159s.046-1.23-1.63-2.342c-1.676-1.111-1.99.467-1.99.467Z" fill="#263238"/><path d="M175.081 95.236c-.49-1.63-1.083-3.94-1.043-5.513M175.714 97.165s-.161-.44-.383-1.131M174.7 89.332s2.751-.05 4.827 1.008M174.787 91.567s.035-.513 2.304 1.235M173.243 89.113s-.155-1.207-1.754-1.714M173.678 90.896l-1.345-.133M173.911 92.701s-2.445.83-3.231 1.85" stroke="#263238" stroke-linecap="round" stroke-linejoin="round"/><path d="M159.552 98.669s7.735 5.115 7.603 24.912" stroke="#263238" stroke-width="2" stroke-linecap="round" stroke-linejoin="round"/><path d="M169.09 97.318s-.248 2.24-2.016 2.209c-1.768-.032-2.609-3.047-4.458-2.491-1.849.556-2.29 3.744-2.29 3.744s1.818-1.259 2.679-.478c.861.78.555 1.852.075 1.638-.481-.213-3.099-1.025-3.356.983a4.275 4.275 0 0 0 .864 3.245s2.189-3.389 3.517-2.632c1.327.757-1.239 1.115-2.356 2.341-1.117 1.227-1.875 2.555-1.028 3.102a12.996 12.996 0 0 1 1.964 1.786s-.089-1.875 1.152-3.223c1.241-1.348 2.085-.576.971.657-1.115 1.232-.784 3.323-.784 3.323s2.958.449 5.155-.242c2.198-.691 2.276-1.515 1.651-2.304-.625-.789-2.909-1.975-2.129-2.834.781-.858 2.195 4.24 3.324 3.249 1.129-.991 1.538-2.186 1.025-3.102l-.538-.916s-2.284-1.183-2.909-1.975.334-.369 1.417.167c1.083.535 3.389 2.189 3.6 1.708.21-.481-.38-3.033-.758-3.837-.377-.803-3.894-.403-4.262-.737-.369-.334 1.587-1.25 2.177-1.152.44.073.875.17 1.305.288 0 0 .167-1.417-1.662-2.857-1.829-1.44-2.33.34-2.33.34Z" fill="#fff"/><path opacity=".3" d="M169.09 97.318s-.248 2.24-2.016 2.209c-1.768-.032-2.609-3.047-4.458-2.491-1.849.556-2.29 3.744-2.29 3.744s1.818-1.259 2.679-.478c.861.78.555 1.852.075 1.638-.481-.213-3.099-1.025-3.356.983a4.275 4.275 0 0 0 .864 3.245s2.189-3.389 3.517-2.632c1.327.757-1.239 1.115-2.356 2.341-1.117 1.227-1.875 2.555-1.028 3.102a12.996 12.996 0 0 1 1.964 1.786s-.089-1.875 1.152-3.223c1.241-1.348 2.085-.576.971.657-1.115 1.232-.784 3.323-.784 3.323s2.958.449 5.155-.242c2.198-.691 2.276-1.515 1.651-2.304-.625-.789-2.909-1.975-2.129-2.834.781-.858 2.195 4.24 3.324 3.249 1.129-.991 1.538-2.186 1.025-3.102l-.538-.916s-2.284-1.183-2.909-1.975.334-.369 1.417.167c1.083.535 3.389 2.189 3.6 1.708.21-.481-.38-3.033-.758-3.837-.377-.803-3.894-.403-4.262-.737-.369-.334 1.587-1.25 2.177-1.152.44.073.875.17 1.305.288 0 0 .167-1.417-1.662-2.857-1.829-1.44-2.33.34-2.33.34Z" fill="#263238"/><path d="M167.288 108.236c-.415-1.924-.879-4.645-.688-6.457M167.834 110.523s-.144-.524-.337-1.342M167.402 101.376s3.168.205 5.472 1.621M167.29 103.968s.089-.576 2.543 1.642M165.74 100.999s-.066-1.406-1.86-2.143M166.075 103.095l-1.538-.279M166.176 105.204s-2.9.722-3.905 1.825" stroke="#263238" stroke-linecap="round" stroke-linejoin="round"/><path d="M162.566 114.273s4.983 3.801 5.507 9.44l-1.034-18.881" stroke="#263238" stroke-width="2" stroke-linecap="round" stroke-linejoin="round"/><path d="M174.628 111.519c-6.555-1.18-6.555 12.194-6.555 12.194" stroke="#263238" stroke-width="2" stroke-linecap="round" stroke-linejoin="round"/><path d="M168.86 123.581s-3.802-27.666 7.2-27.666" stroke="#263238" stroke-width="2" stroke-linecap="round" stroke-linejoin="round"/><path d="M172.132 110.722c-.896-1.006-2.8-1.006-3.917 1.569s-.112 2.126-.112 2.126 2.125-.671 3.456-1.121c1.33-.449 3.133-1.566 3.245-.892.113.673-.895 1.342-2.128 1.566-1.232.225-4.475 1.118-4.141 1.792.334.674 1.12 2.684 1.12 2.684a28.551 28.551 0 0 1 3.021-2.238c1.457-.896 2.353-.559 1.57.446-.784 1.006-3.024 2.129-2.575 3.471.449 1.342 3.145 3.024 3.145 3.024s.334-2.8 1.12-3.695c.787-.896.784.112.559 1.679-.112.667-.187 1.34-.225 2.016l3.134 1.117a22.4 22.4 0 0 1 1.679-2.238l.576-.558s-2.463-2.129-2.575-3.456c-.112-1.328 1.679 0 2.238.224.559.225 1.454 1.789 1.454 1.789s.562-2.572.674-3.456l.113-.896s-2.353-.895-3.249-.895c-.896 0-1.342.671-1.342-.225s.895-1.455 1.903-1.342c.913.151 1.811.375 2.688.671 0 0 .671-.562.446-2.241-.225-1.679-.783-1.679-2.126-1.23-1.342.45-2.24 1.44-3.248 1.44s-.447-1.229.224-1.566c.672-.337 2.351-1.008 2.688-1.121.336-.112-1.792-1.679-2.912-1.9-1.12-.222-2.569.576-2.463 1.679.214 2.338-3.144 2.799-4.04 1.777Z" fill="#fff"/><path d="M179.338 122.247c.035.337.058.677.069 1.014M177.088 114.212a29.643 29.643 0 0 1 2.108 6.938M176.684 113.314c-.553-1.193-.97-1.918-.97-1.918a3.318 3.318 0 0 0 1.44-1.345c.262-.53.646-.99 1.12-1.343M171.794 115.2s4.032-1.679 4.032-1.342M178.064 113.075s1.792-.896 3.359-.896M177.408 115.776a15.54 15.54 0 0 0-2.128 2.125 9.662 9.662 0 0 0-1.567 2.575M178.623 116.208s2.353-.671 3.583.446" stroke="#263238" stroke-linecap="round" stroke-linejoin="round"/><path d="M182.879 101.088c-1.218-.72-2.566-.737-3.228-1.498-.663-.76.636-1.152 1.33-.864.694.288 2.304 1.115 2.607 1.296.302.182.095-2.453-.47-3.456-.564-1.002-2.111-1.57-2.88-.76-1.627 1.71-4.167-.533-3.994-1.869.173-1.336-1.074-2.773-3.744-1.93-2.67.844-1.679 1.308-1.679 1.308s1.9 1.166 3.122 1.89c1.221.722 3.237 1.338 2.802 1.862-.435.525-1.601.205-2.578-.575-.976-.78-3.778-2.647-4.066-1.953-.288.694-1.296 2.592-1.296 2.592 1.24.19 2.467.462 3.672.815 1.63.51 1.964 1.405.691 1.475-1.273.069-3.589-.888-4.32.33-.732 1.219-.228 4.349-.228 4.349s2.333-1.581 3.523-1.575c1.189.006.429.665-.902 1.524-.576.353-1.133.738-1.667 1.152l1.209 3.101a22.074 22.074 0 0 1 2.791-.198l.789.054s0-3.254.933-4.219c.933-.965 1.1 1.267 1.299 1.838.199.57-.397 2.272-.397 2.272s2.304-1.264 3.058-1.765l.752-.504s-.864-2.362-1.44-3.039-1.385-.576-.711-1.152c.673-.576 1.687-.288 2.263.556.482.788.901 1.614 1.253 2.468 0 0 .864.141 1.984-1.129 1.121-1.27.743-1.679-.478-2.396Zm-10.592 3.583c-.896-.447 1.229-1.342 1.229-1.342.787-.118-.334 1.791-1.226 1.336l-.003.006Zm1.506-4.179c-.38-.19.763-.576.763-.576 1.659.308-.377.763-.76.57l-.003.006Z" fill="#fff"/><path d="M172.264 106.946a15.15 15.15 0 0 1-.717.717M176.858 99.98a29.546 29.546 0 0 1-3.856 6.139M177.272 99.087c.539-1.202.813-1.993.813-1.993a3.3 3.3 0 0 0 1.97.218 3.744 3.744 0 0 1 1.748-.034M176.298 98.784c.254-.219-3.654-2.163-3.654-2.163M178.358 99.97s1.852.767 2.88 1.95M175.89 101.223a15.707 15.707 0 0 0-3.001-.21 9.612 9.612 0 0 0-2.969.504M176.359 102.447s2.048 1.337 2.016 2.998" stroke="#263238" stroke-linecap="round" stroke-linejoin="round"/><path d="M165.487 116.594c-.979-.576-2.065-.593-2.592-1.207-.527-.613.51-.921 1.069-.688.558.233 1.851.896 2.099 1.04.248.144.075-1.973-.38-2.771-.455-.798-1.699-1.264-2.304-.611-1.31 1.374-3.355-.429-3.214-1.506.141-1.077-.864-2.232-3.021-1.552-2.157.68-1.351 1.054-1.351 1.054s1.529.939 2.511 1.518c.982.579 2.592 1.077 2.255 1.5-.337.424-1.287.164-2.073-.466-.786-.631-3.041-2.132-3.275-1.573-.233.559-1.039 2.1-1.039 2.1.998.152 1.985.37 2.954.653 1.311.412 1.579 1.135.553 1.19-1.025.055-2.88-.714-3.456.265-.576.979-.181 3.499-.181 3.499s1.878-1.27 2.834-1.267c.956.003.346.536-.723 1.227-.465.283-.914.592-1.345.924l.974 2.497a17.748 17.748 0 0 1 2.246-.161l.636.046s0-2.621.752-3.396c.752-.774.884 1.02 1.043 1.478.158.458-.32 1.829-.32 1.829s1.86-1.017 2.462-1.423l.605-.403s-.697-1.901-1.169-2.445c-.472-.545-1.118-.464-.576-.936.541-.473 1.356-.222 1.82.449.389.635.727 1.299 1.011 1.987 0 0 .694.112 1.595-.91.902-1.022.576-1.362-.4-1.941Zm-8.525 2.88c-.72-.36.991-1.08.991-1.08.631-.089-.271 1.443-.994 1.083l.003-.003Zm1.216-3.364c-.308-.153.613-.461.613-.461 1.336.26-.308.62-.613.464v-.003Z" fill="#fff"/><path d="M156.96 121.311c-.187.199-.38.392-.576.576M160.64 115.707a23.905 23.905 0 0 1-3.105 4.939M160.975 114.987c.432-.965.653-1.604.653-1.604a2.651 2.651 0 0 0 1.584.175c.46-.12.942-.129 1.406-.028M157.247 113.011s3.148 1.564 2.943 1.728M161.855 115.698s1.489.617 2.304 1.567M159.86 116.706a12.423 12.423 0 0 0-2.413-.17 7.8 7.8 0 0 0-2.39.406M160.237 117.691s1.651 1.074 1.619 2.414" stroke="#263238" stroke-linecap="round" stroke-linejoin="round"/><path d="M161.49 98.11s-1.233.896-2.016 0c-.783-.896.337-2.687-.786-3.358-1.124-.671-2.909.559-2.909.559s1.454.337 1.454 1.12c0 .783-.671 1.118-.783.783-.112-.334-.896-2.016-2.016-1.232a2.876 2.876 0 0 0-1.23 1.903s2.684-.449 2.909.56c.225 1.007-1.12-.113-2.238-.113-1.117 0-2.128.225-2.016.896a8.79 8.79 0 0 1 0 1.791 3.33 3.33 0 0 1 2.128-.896c1.23 0 1.23.784.113.784-1.118 0-2.016 1.12-2.016 1.12s1.12 1.679 2.462 2.462c1.342.784 1.792.45 1.904-.224.112-.674-.337-2.35.446-2.35.784 0-1.117 3.024-.112 3.133 1.005.109 1.791-.222 2.016-.896l.225-.671s-.45-1.679-.337-2.35c.112-.671.337 0 .558.784.222.783.45 2.687.784 2.574.334-.112 1.345-1.566 1.569-2.125.225-.559-1.569-2.128-1.569-2.463 0-.334 1.345.222 1.569.559.162.254.311.515.447.784 0 0 .783-.559.671-2.129-.113-1.57-1.227-1.005-1.227-1.005Z" fill="#fff"/><path d="M155.231 102.168c.775-1.08 1.921-2.549 2.915-3.275M154.324 103.481s.199-.311.519-.777M158.688 99.115s1.342 1.679 1.679 3.471M157.349 100.224s.334-.225.334 2.016M158.132 98.11s.671-.674.222-1.904M157.236 99.228l-.561-.896M156.228 100.224s-1.679-1.12-2.687-1.12" stroke="#263238" stroke-linecap="round" stroke-linejoin="round"/><path d="M172.794 123.186h-8.654v12.456h8.654v-12.456Z" fill="#263238" stroke="#263238" stroke-width="2" stroke-linecap="round" stroke-linejoin="round"/><path d="M94.843 27.47s.104-3.681-.026-6.846.133-9.95.133-9.95M94.89 14.665l-1.437-1.132M94.872 15.443l.513-.827M94.758 18.717l1.276-1.057M94.95 12.064l-.675-.613M94.745 19.29l-.844-.904M94.817 22.844l-1.753-1.601" stroke="#263238" stroke-miterlimit="10"/><path d="M94.863 24.817c.447-.173.882-.376 1.302-.608" stroke="#263238" stroke-miterlimit="10"/><path d="M93.887 15.232c-.706-.544-3.073-.449-3.528.683-.455 1.132.993 2.978 2.376 2.848.544-.052.78-.09.993-.394l-1.944-1.901 2.106 1.693a1.91 1.91 0 0 0 .207-.616c.147-.677.455-1.803-.21-2.313ZM98.47 13.919v.04c-.19.844-1.152 1.322-1.967 1.25a1.795 1.795 0 0 1-.334-.06 2.302 2.302 0 0 0-.208 2.045c.034.095.08.186.136.27.239-.196 2.796-2.379 2.796-2.379l-2.655 2.558c.8.864 2.678.74 3.332-.847.654-1.587-.179-2.65-1.1-2.877Z" fill="#fff"/><path d="M97.167 10.967c-1.376-.288-2.609.323-2.592 1.76a2.322 2.322 0 0 0 .772 1.673l1.42-1.935-1.192 2.11a1.9 1.9 0 0 0 .898.323c.813.07 1.777-.409 1.967-1.253.2-.941.104-2.376-1.273-2.678ZM95.56 5.97s-.141.043-1.022.473a2.23 2.23 0 0 0-.882 3.018c.244.483.667.853 1.178 1.03l.354-3.423-.15 3.47a.984.984 0 0 0 .202 0c.576-.058 1.478-.743 1.564-2.146.087-1.402-1.244-2.422-1.244-2.422ZM91.537 9.083l2.658 2.126a.79.79 0 0 0 .026-.288C94.098 9.706 92.885 9 92.085 8.747c-.801-.254-1.357.198-.841 1.362.515 1.163 1.866 1.728 2.468 1.552a.717.717 0 0 0 .368-.225l-2.543-2.353Z" fill="#fff"/><path d="M93.366 11.808a2.699 2.699 0 0 1-2.042-1.18 1.085 1.085 0 0 0-1.18.953c-.272 1.267.644 2.591 1.966 2.43.415-.021.81-.19 1.112-.475l-2.362-2.157 2.529 1.927a.766.766 0 0 0 .092-.288 2.1 2.1 0 0 0-.115-1.21ZM93.352 18.855a2.047 2.047 0 0 1-.677.162c-.864.08-1.746-.597-2.183-1.392a1.152 1.152 0 0 0-1.057.95c-.262 1.484 1.111 3.44 2.5 3.129.36-.07.695-.24.964-.49l-3.03-2.915 3.206 2.725c.183-.235.301-.514.343-.81a1.846 1.846 0 0 0-.067-1.359ZM99.448 21.888c-1.019-1.18-2.231-.124-2.231-.124s-.743.245-1.026 1.299a1.63 1.63 0 0 0 .038.97l3.064-1.785-2.99 1.953c.288.53.888.864 1.728.619 1.343-.369 2.434-1.743 1.417-2.932Z" fill="#fff"/><path d="M96.908 26.358h-4.242v6.281h4.242v-6.281Z" fill="#263238"/><path d="M143.732 32.587H87.779v103.459h55.953V32.587Z" fill="#fff" stroke="#263238" stroke-miterlimit="10"/><path d="M135.84 33.898H88.942V134.47h46.898V33.898Z" fill="#263238" stroke="#263238" stroke-linecap="round" stroke-linejoin="round"/><path d="M135.84 49.496H88.942v1.483h46.898v-1.483ZM135.84 66.643H88.942v1.483h46.898v-1.483ZM120.726 33.915h-.997v15.578h.997V33.915ZM104.783 33.915h-.997v15.578h.997V33.915ZM120.726 68.144h-.997v15.578h.997V68.144ZM104.783 68.144h-.997v15.578h.997V68.144ZM112.677 51.062h-.996V66.64h.996V51.062ZM135.84 83.724H88.942v1.484h46.898v-1.484ZM135.84 100.814H88.942v34.18h46.898v-34.18ZM112.677 85.234h-.996v15.578h.996V85.234Z" fill="#fff" stroke="#263238" stroke-miterlimit="10"/><path d="M136.99 32.579v103.443l6.745.023V32.579h-6.745Z" fill="#263238" stroke="#263238" stroke-linecap="round" stroke-linejoin="round"/><path d="M123.825 35.124h-2.408v14.334h2.408V35.124Z" fill="#fff" stroke="#263238" stroke-miterlimit="10"/><path d="M123.825 46.38h-2.408v1.175h2.408V46.38ZM123.825 36.579h-2.408v1.175h2.408v-1.175ZM126.288 35.124h-2.408v14.334h2.408V35.124Z" fill="#fff" stroke="#263238" stroke-miterlimit="10"/><path d="M126.288 46.38h-2.408v1.175h2.408V46.38ZM126.288 36.579h-2.408v1.175h2.408v-1.175ZM128.753 35.124h-2.407v14.334h2.407V35.124Z" fill="#fff" stroke="#263238" stroke-miterlimit="10"/><path d="M128.753 46.38h-2.407v1.175h2.407V46.38ZM128.753 36.579h-2.407v1.175h2.407v-1.175ZM131.215 35.124h-2.407v14.334h2.407V35.124Z" fill="#fff" stroke="#263238" stroke-miterlimit="10"/><path d="M135.227 35.124h-4.032v14.334h4.032V35.124Z" fill="#fff" stroke="#263238" stroke-miterlimit="10"/><path d="M131.215 46.38h-2.407v1.175h2.407V46.38ZM131.215 36.579h-2.407v1.175h2.407v-1.175ZM107.717 35.124h-2.407v14.334h2.407V35.124Z" fill="#fff" stroke="#263238" stroke-miterlimit="10"/><path d="M107.717 46.38h-2.407v1.175h2.407V46.38ZM107.717 36.579h-2.407v1.175h2.407v-1.175ZM110.18 35.124h-2.408v14.334h2.408V35.124Z" fill="#fff" stroke="#263238" stroke-miterlimit="10"/><path d="M110.18 46.38h-2.408v1.175h2.408V46.38ZM110.18 36.579h-2.408v1.175h2.408v-1.175ZM112.645 35.124h-2.408v14.334h2.408V35.124Z" fill="#fff" stroke="#263238" stroke-miterlimit="10"/><path d="M112.645 46.38h-2.408v1.175h2.408V46.38ZM112.645 36.579h-2.408v1.175h2.408v-1.175ZM115.108 35.124H112.7v14.334h2.408V35.124Z" fill="#fff" stroke="#263238" stroke-miterlimit="10"/><path d="M119.12 35.124h-4.032v14.334h4.032V35.124Z" fill="#fff" stroke="#263238" stroke-miterlimit="10"/><path d="M115.108 46.38H112.7v1.175h2.408V46.38ZM115.108 36.579H112.7v1.175h2.408v-1.175ZM107.717 69.405h-2.407V83.74h2.407V69.405Z" fill="#fff" stroke="#263238" stroke-miterlimit="10"/><path d="M107.717 80.66h-2.407v1.175h2.407V80.66ZM107.717 70.862h-2.407v1.175h2.407v-1.175ZM110.18 69.405h-2.408V83.74h2.408V69.405Z" fill="#fff" stroke="#263238" stroke-miterlimit="10"/><path d="M110.18 80.66h-2.408v1.175h2.408V80.66ZM110.18 70.862h-2.408v1.175h2.408v-1.175ZM112.645 69.405h-2.408V83.74h2.408V69.405Z" fill="#fff" stroke="#263238" stroke-miterlimit="10"/><path d="M112.645 80.66h-2.408v1.175h2.408V80.66ZM112.645 70.862h-2.408v1.175h2.408v-1.175ZM115.108 69.405H112.7V83.74h2.408V69.405Z" fill="#fff" stroke="#263238" stroke-miterlimit="10"/><path d="M119.12 69.405h-4.032V83.74h4.032V69.405Z" fill="#fff" stroke="#263238" stroke-miterlimit="10"/><path d="M115.108 80.66H112.7v1.175h2.408V80.66ZM115.108 70.862H112.7v1.175h2.408v-1.175ZM123.619 69.405h-2.408V83.74h2.408V69.405Z" fill="#fff" stroke="#263238" stroke-miterlimit="10"/><path d="M123.619 80.66h-2.408v1.175h2.408V80.66ZM123.619 70.862h-2.408v1.175h2.408v-1.175ZM126.083 69.405h-2.407V83.74h2.407V69.405Z" fill="#fff" stroke="#263238" stroke-miterlimit="10"/><path d="M126.083 80.66h-2.407v1.175h2.407V80.66ZM126.083 70.862h-2.407v1.175h2.407v-1.175ZM128.545 69.405h-2.407V83.74h2.407V69.405Z" fill="#fff" stroke="#263238" stroke-miterlimit="10"/><path d="M128.545 80.66h-2.407v1.175h2.407V80.66ZM128.545 70.862h-2.407v1.175h2.407v-1.175ZM131.011 69.405h-2.407V83.74h2.407V69.405Z" fill="#fff" stroke="#263238" stroke-miterlimit="10"/><path d="M135.019 69.405h-4.032V83.74h4.032V69.405Z" fill="#fff" stroke="#263238" stroke-miterlimit="10"/><path d="M131.011 80.66h-2.407v1.175h2.407V80.66ZM131.011 70.862h-2.407v1.175h2.407v-1.175ZM91.918 69.405H89.51V83.74h2.407V69.405Z" fill="#fff" stroke="#263238" stroke-miterlimit="10"/><path d="M91.918 80.66H89.51v1.175h2.407V80.66ZM91.918 70.862H89.51v1.175h2.407v-1.175ZM94.383 69.405h-2.407V83.74h2.407V69.405Z" fill="#fff" stroke="#263238" stroke-miterlimit="10"/><path d="M94.383 80.66h-2.407v1.175h2.407V80.66ZM94.383 70.862h-2.407v1.175h2.407v-1.175ZM96.846 69.405H94.44V83.74h2.407V69.405Z" fill="#fff" stroke="#263238" stroke-miterlimit="10"/><path d="M96.846 80.66H94.44v1.175h2.407V80.66ZM96.846 70.862H94.44v1.175h2.407v-1.175ZM99.311 69.405h-2.408V83.74h2.408V69.405Z" fill="#fff" stroke="#263238" stroke-miterlimit="10"/><path d="M103.32 69.405h-4.032V83.74h4.032V69.405Z" fill="#fff" stroke="#263238" stroke-miterlimit="10"/><path d="M99.311 80.66h-2.408v1.175h2.408V80.66ZM99.311 70.862h-2.408v1.175h2.408v-1.175ZM91.61 35.124h-2.408v14.334h2.408V35.124Z" fill="#fff" stroke="#263238" stroke-miterlimit="10"/><path d="M91.61 46.38h-2.408v1.175h2.408V46.38ZM91.61 36.579h-2.408v1.175h2.408v-1.175ZM94.073 35.124h-2.408v14.334h2.408V35.124Z" fill="#fff" stroke="#263238" stroke-miterlimit="10"/><path d="M94.073 46.38h-2.408v1.175h2.408V46.38ZM94.073 36.579h-2.408v1.175h2.408v-1.175ZM96.538 35.124H94.13v14.334h2.408V35.124Z" fill="#fff" stroke="#263238" stroke-miterlimit="10"/><path d="M96.538 46.38H94.13v1.175h2.408V46.38ZM96.538 36.579H94.13v1.175h2.408v-1.175ZM99 35.124h-2.408v14.334h2.407V35.124Z" fill="#fff" stroke="#263238" stroke-miterlimit="10"/><path d="M103.011 35.124H98.98v14.334h4.031V35.124Z" fill="#fff" stroke="#263238" stroke-miterlimit="10"/><path d="M99 46.38h-2.408v1.175h2.407V46.38ZM99 36.579h-2.408v1.175h2.407v-1.175ZM98.735 52.206h-2.408V66.54h2.408V52.206Z" fill="#fff" stroke="#263238" stroke-miterlimit="10"/><path d="M98.735 63.46h-2.408v1.176h2.408V63.46ZM98.735 53.663h-2.408v1.175h2.408v-1.175Z" fill="#fff" stroke="#263238" stroke-miterlimit="10"/><path d="M96.359 52.206H93.95V66.54h2.408V52.206Z" fill="#fff" stroke="#263238" stroke-miterlimit="10"/><path d="M96.359 63.46H93.95v1.176h2.408V63.46ZM96.359 53.663H93.95v1.175h2.408v-1.175Z" fill="#fff" stroke="#263238" stroke-miterlimit="10"/><path d="M93.983 52.206h-2.408V66.54h2.408V52.206Z" fill="#fff" stroke="#263238" stroke-miterlimit="10"/><path d="M93.983 63.46h-2.408v1.176h2.408V63.46ZM93.983 53.663h-2.408v1.175h2.408v-1.175Z" fill="#fff" stroke="#263238" stroke-miterlimit="10"/><path d="M91.61 52.206h-2.408V66.54h2.408V52.206Z" fill="#fff" stroke="#263238" stroke-miterlimit="10"/><path d="M91.61 63.46h-2.408v1.176h2.408V63.46ZM91.61 53.663h-2.408v1.175h2.408v-1.175ZM101.198 52.206H98.79V66.54h2.408V52.206Z" fill="#fff" stroke="#263238" stroke-miterlimit="10"/><path d="M101.198 63.46H98.79v1.176h2.408V63.46ZM101.198 53.663H98.79v1.175h2.408v-1.175ZM103.66 52.206h-2.408V66.54h2.408V52.206Z" fill="#fff" stroke="#263238" stroke-miterlimit="10"/><path d="M103.66 63.46h-2.408v1.176h2.408V63.46ZM103.66 53.663h-2.408v1.175h2.408v-1.175ZM106.124 52.206h-2.407V66.54h2.407V52.206Z" fill="#fff" stroke="#263238" stroke-miterlimit="10"/><path d="M110.136 52.206h-4.032V66.54h4.032V52.206Z" fill="#fff" stroke="#263238" stroke-miterlimit="10"/><path d="M106.124 63.46h-2.407v1.176h2.407V63.46ZM106.124 53.663h-2.407v1.175h2.407v-1.175ZM115.854 52.206h-2.408V66.54h2.408V52.206Z" fill="#fff" stroke="#263238" stroke-miterlimit="10"/><path d="M115.854 63.46h-2.408v1.176h2.408V63.46ZM115.854 53.663h-2.408v1.175h2.408v-1.175ZM118.319 52.206h-2.408V66.54h2.408V52.206Z" fill="#fff" stroke="#263238" stroke-miterlimit="10"/><path d="M118.319 63.46h-2.408v1.176h2.408V63.46ZM118.319 53.663h-2.408v1.175h2.408v-1.175ZM123.248 52.202l-2.245.948 5.645 13.37 2.244-.948-5.644-13.37Z" fill="#fff" stroke="#263238" stroke-miterlimit="10"/><path d="m127.681 62.699-2.244.948.462 1.095 2.245-.947-.463-1.096ZM123.823 53.56l-2.245.949.463 1.095 2.244-.947-.462-1.096ZM126.65 66.514h5.026l2.261-.942-5.043-.006-2.244.948ZM123.25 52.197h4.72l5.968 13.375-5.043-.006-5.645-13.369ZM120.695 52.206h-2.408V66.54h2.408V52.206Z" fill="#fff" stroke="#263238" stroke-miterlimit="10"/><path d="M120.695 63.46h-2.408v1.176h2.408V63.46ZM120.695 53.663h-2.408v1.175h2.408v-1.175ZM120.695 52.206h2.555l-2.247.939 5.648 13.369h-5.956V52.206ZM98.735 86.426h-2.408v14.334h2.408V86.426Z" fill="#fff" stroke="#263238" stroke-miterlimit="10"/><path d="M98.735 97.681h-2.408v1.175h2.408v-1.175ZM98.735 87.88h-2.408v1.175h2.408V87.88Z" fill="#fff" stroke="#263238" stroke-miterlimit="10"/><path d="M96.359 86.426H93.95v14.334h2.408V86.426Z" fill="#fff" stroke="#263238" stroke-miterlimit="10"/><path d="M96.359 97.681H93.95v1.175h2.408v-1.175ZM96.359 87.88H93.95v1.175h2.408V87.88Z" fill="#fff" stroke="#263238" stroke-miterlimit="10"/><path d="M93.983 86.426h-2.408v14.334h2.408V86.426Z" fill="#fff" stroke="#263238" stroke-miterlimit="10"/><path d="M93.983 97.681h-2.408v1.175h2.408v-1.175ZM93.983 87.88h-2.408v1.175h2.408V87.88Z" fill="#fff" stroke="#263238" stroke-miterlimit="10"/><path d="M91.61 86.426h-2.408v14.334h2.408V86.426Z" fill="#fff" stroke="#263238" stroke-miterlimit="10"/><path d="M91.61 97.681h-2.408v1.175h2.408v-1.175ZM91.61 87.88h-2.408v1.175h2.408V87.88ZM101.198 86.426H98.79v14.334h2.408V86.426Z" fill="#fff" stroke="#263238" stroke-miterlimit="10"/><path d="M101.198 97.681H98.79v1.175h2.408v-1.175ZM101.198 87.88H98.79v1.175h2.408V87.88ZM103.66 86.426h-2.408v14.334h2.408V86.426Z" fill="#fff" stroke="#263238" stroke-miterlimit="10"/><path d="M103.66 97.681h-2.408v1.175h2.408v-1.175ZM103.66 87.88h-2.408v1.175h2.408V87.88ZM106.124 86.426h-2.407v14.334h2.407V86.426Z" fill="#fff" stroke="#263238" stroke-miterlimit="10"/><path d="M110.136 86.426h-4.032v14.334h4.032V86.426Z" fill="#fff" stroke="#263238" stroke-miterlimit="10"/><path d="M106.124 97.681h-2.407v1.175h2.407v-1.175ZM106.124 87.88h-2.407v1.175h2.407V87.88ZM115.854 86.426h-2.408v14.334h2.408V86.426Z" fill="#fff" stroke="#263238" stroke-miterlimit="10"/><path d="M115.854 97.681h-2.408v1.175h2.408v-1.175ZM115.854 87.88h-2.408v1.175h2.408V87.88ZM118.319 86.426h-2.408v14.334h2.408V86.426Z" fill="#fff" stroke="#263238" stroke-miterlimit="10"/><path d="M118.319 97.681h-2.408v1.175h2.408v-1.175ZM118.319 87.88h-2.408v1.175h2.408V87.88ZM123.247 86.42l-2.245.948 5.645 13.37 2.244-.948-5.644-13.37Z" fill="#fff" stroke="#263238" stroke-miterlimit="10"/><path d="m127.622 96.663-2.241.95.464 1.094 2.241-.95-.464-1.094Z" fill="#fff" stroke="#263238" stroke-width=".999" stroke-miterlimit="10"/><path d="m123.821 87.78-2.245.947.463 1.096 2.244-.948-.462-1.096ZM126.65 100.734h5.026l2.261-.942-5.043-.009-2.244.951ZM123.25 86.414h4.72l5.968 13.378-5.043-.009-5.645-13.369ZM120.695 86.426h-2.408v14.334h2.408V86.426Z" fill="#fff" stroke="#263238" stroke-miterlimit="10"/><path d="M120.695 97.681h-2.408v1.175h2.408v-1.175ZM120.695 87.88h-2.408v1.175h2.408V87.88ZM120.695 86.426h2.555l-2.247.936 5.648 13.372h-5.956V86.426Z" fill="#fff" stroke="#263238" stroke-miterlimit="10"/><path d="M111.681 100.812v33.609M89.322 104.973h46.506" stroke="#263238" stroke-miterlimit="10"/><path d="M98.867 107.816v6.094M100.897 107.816v6.094M122.224 107.816v6.094M124.254 107.816v6.094" stroke="#263238" stroke-width="2" stroke-miterlimit="10"/><path d="M148.793 33.123V22.789h15.028M164.927 22.79h6.33V48.42h-22.464V34.69" stroke="#263238" stroke-miterlimit="10"/><path d="M163.084 44.965H151.82v-18.72h16.408v18.72h-3.854" stroke="#263238" stroke-miterlimit="10"/><path d="M163.178 32.005h-6.31v7.2h6.31v-7.2ZM173.253 45.07v-6.446h9.374M183.316 38.624h3.948V54.61h-14.011v-8.565" stroke="#263238" stroke-miterlimit="10"/><path d="M182.166 52.456h-7.024V40.778h10.232v11.678h-2.405" stroke="#263238" stroke-miterlimit="10"/><path d="M182.227 44.372h-3.937v4.49h3.937v-4.49Z" stroke="#263238" stroke-miterlimit="10"/><path d="M24.71 136.045h162.433" stroke="#263238" stroke-linecap="round" stroke-linejoin="round"/><path d="M36.23 95.725s-1.727-23.04-.863-25.632c.864-2.592 6.192-2.448 7.2-2.448s22.032 0 25.056 1.44c3.024 1.44 3.456 36.864 3.456 36.864H37.67l-1.44-10.224Z" fill="#263238" stroke="#263238" stroke-miterlimit="10"/><path d="M72.228 93.853s-3.456 0-4.147 3.456c-.691 3.456 2.03 17.712 2.232 21.744.201 4.032.91 9.648.91 9.648h12.24l2.736-34.848h-13.97Z" fill="#263238" stroke="#263238" stroke-miterlimit="10"/><path d="M86.198 93.853s-3.456 0-4.32 3.456c-.864 3.456 1.152 17.712 1.152 21.744s.432 9.648.432 9.648h4.32s.432-10.368.432-11.808c0-1.44 1.728-16.416.864-19.44-.864-3.024-1.584-3.312-2.88-3.6Z" fill="#636363" stroke="#263238" stroke-miterlimit="10"/><path d="M49.695 69.157s-11.448 4.68-11.448 5.184c0 .504 3.888 14.04 5.328 16.128 1.44 2.088 2.448 4.392 2.88 5.256.432.864 2.304 3.024 3.816 3.024s3.312-1.8 8.136-2.52 9.144-.648 10.008-1.296c.864-.648-.216-2.376-.36-2.736-.144-.36-.72-1.656-.72-1.656s4.68 3.888 6.552 4.032c1.872.144 3.24-.792 3.528-2.016.288-1.224-.792-4.176-1.512-5.76-.72-1.584-4.104-4.104-5.616-6.048-1.512-1.944-3.456-4.248-4.824-5.832a13.095 13.095 0 0 0-4.32-3.312c-1.296-.576-4.608-2.016-6.696-2.232-2.088-.216-4.752-.216-4.752-.216Z" fill="#fff" stroke="#263238" stroke-miterlimit="10"/><path d="M72.133 86.028s-1.63 4.513-1.054 5.665c.576 1.152 2.111 1.535 2.111 1.535M47.967 70.67l9.504 9.215 1.44-6.912" stroke="#263238" stroke-miterlimit="10"/><path d="M72.591 86.581s2.304 1.656 3.096 1.08c.792-.576.576-1.656.072-2.808s-2.16-1.8-2.808-1.296c-.648.504-.864 2.52-.36 3.024ZM48.975 66.133l.36 4.32 7.632 7.488 1.152-5.328.504-2.232s-4.968-.864-6.552-1.944a53.98 53.98 0 0 1-3.096-2.304Z" fill="#fff" stroke="#263238" stroke-miterlimit="10"/><path d="M58.623 70.381s-4.968-.864-6.552-1.944a53.98 53.98 0 0 1-3.096-2.304l.36 4.32 1.93 1.893c1.5.423 2.994.627 4.011.236a15.944 15.944 0 0 0 3.214-1.599l.133-.602ZM46.694 62.798s-1.345-6.146-1.345-7.2c0-1.054 3.649-6.434 8.64-5.57 4.99.864 7.776 3.745 7.969 4.608.193.864-.576 2.592-.576 2.592.151.501.248 1.017.288 1.538 0 .576-.864 3.07-.864 3.07l-.288-2.592s-2.4.674-3.744.674c-1.345 0-3.65-.864-3.65-.864s.482 1.535 0 2.304c-.48.77-1.917 1.44-1.917 1.44s-.193 1.535-.77 1.535a12.557 12.557 0 0 1-2.11-.288c-.386-.095-1.633-1.247-1.633-1.247Z" fill="#263238" stroke="#263238" stroke-miterlimit="10"/><path d="M48.903 63.47s-.193-2.305-2.114-1.729c-1.921.576-.671 2.688.386 3.744 1.057 1.057 1.342.288 1.342.288s.288 2.21 1.728 3.456c1.44 1.248 3.649 3.552 5.953 3.264 2.304-.288 3.937-3.168 4.225-5.28.288-2.11.478-7.104.478-7.68-.07-.65-.198-1.292-.383-1.919 0 0-2.016 1.44-3.84 1.055-1.822-.386-3.743-1.152-4.607-1.152-.864 0-.674 1.25-.386 1.632.288.383 1.057 1.152.193 1.633-.864.481-2.016.96-2.016.96v2.015l-.96-.288Z" fill="#fff" stroke="#263238" stroke-miterlimit="10"/><path d="m58.087 62.421-.473 5.204-2.364-.685" stroke="#263238" stroke-miterlimit="10"/><path d="M56.09 67.36s-1.152 0-1.785.055c-.38.063-.767.08-1.152.052-.262-.052-.576-.262-.052.262.524.524 2.102 1.152 2.943 1.261.841.11 1.42-.158 2.048-.576.628-.417 1.152-.84.841-.944a6.932 6.932 0 0 0-1.313-.107v.265l-1.53-.268Z" fill="#263238" stroke="#263238" stroke-miterlimit="10"/><path d="M54.435 64.207c.19 0 .343-.317.343-.709 0-.391-.153-.708-.343-.708-.189 0-.342.317-.342.708 0 .392.153.709.342.709ZM59.559 63.395c0 .391-.153.708-.34.708-.188 0-.343-.317-.343-.708 0-.392.153-.712.343-.712.19 0 .34.32.34.712Z" fill="#263238"/><path d="M53.148 62.421s1.42-1 2.574-.576M58.352 61.897s1.471-.685 2.102-.055M55.357 64.8s-.316.369-1.368.683M58.246 64.575c.311.215.647.392 1 .527" stroke="#263238" stroke-miterlimit="10"/><path d="m62.727 78.23.504-1.297s.648.648 2.376.648c1.728 0 4.536 1.224 4.536 1.224l.216.36s.504-1.512 1.44-1.8c.936-.288 2.447-1.296 2.663-1.584l.216-.288 1.008.864-4.463 5.904-8.352-3.24-.144-.792Z" fill="#fff" stroke="#263238" stroke-miterlimit="10"/><path d="m62.799 77.725-2.16 11.448 7.488 1.728 2.736-11.088-8.064-2.088ZM70.863 79.813l4.824-3.456-2.88 11.088-4.68 3.456 2.736-11.088Z" fill="#fff" stroke="#263238" stroke-miterlimit="10"/><path d="m53.51 87.085 3.264-1.345s2.88-3.07 3.168-3.358c.288-.288 3.168-.576 3.168-.576l3.168 2.111s.576.481 0 .671c-.576.19-1.823-.383-1.823-.383l-1.25-.769-.766.386 1.63 1.342s.48 1.25.48 1.921a3.122 3.122 0 0 1-.287 1.247l-.96 1.345-2.88-1.44s-1.727 1.247-2.113 1.44c-.386.193-4.032-.095-4.032-.095l-.766-2.497Z" fill="#fff" stroke="#263238" stroke-miterlimit="10"/><path d="m60.397 83.722 1.019-.193.876.242M59.427 85.617s2.28-.634 2.428-.634c.147 0 1.846 1.748 1.846 1.748l.193 1.895" stroke="#263238" stroke-miterlimit="10"/><path d="m59.524 86.83 1.844.048 1.699 1.118a5.09 5.09 0 0 1 .236 1.681" stroke="#263238" stroke-miterlimit="10"/><path d="M40.262 72.973s-2.114.288-2.402 2.111c-.288 1.823-2.206 17.185-1.63 18.913.576 1.728 11.232-1.247 11.615-1.44.383-.193 6.431-2.016 6.53-2.399.097-.383.287-3.554-.577-3.744-.864-.19-9.12.095-9.12.095l-1.153-9.985" fill="#fff"/><path d="M40.262 72.973s-2.114.288-2.402 2.111c-.288 1.823-2.206 17.185-1.63 18.913.576 1.728 11.232-1.247 11.615-1.44.383-.193 6.431-2.016 6.53-2.399.097-.383.287-3.554-.577-3.744-.864-.19-9.12.095-9.12.095l-1.153-9.985M44.678 86.51l-5.09.863M38.63 86.221l4.415.576" stroke="#263238" stroke-miterlimit="10"/><path d="M74.39 81.11s-1.943 2.015-1.871 2.52c.072.503 1.08-.289 1.296-.505.216-.216 1.224-.792 1.224-1.368 0-.576-.216-1.224-.648-.648Z" fill="#fff" stroke="#263238" stroke-miterlimit="10"/><path d="M74.607 82.333s.576.576.576 1.08c0 .504-1.224 2.16-1.8 2.16-.576 0-.144-1.152.144-1.656s1.08-1.584 1.08-1.584Z" fill="#fff" stroke="#263238" stroke-miterlimit="10"/><path d="M75.182 83.413s.72.216.72.864-1.368 1.728-1.728 1.8c-.36.072-.288-.576 0-1.08.288-.504 1.008-1.584 1.008-1.584Z" fill="#fff" stroke="#263238" stroke-miterlimit="10"/><path d="M75.903 84.278c.147.364.197.761.144 1.151-.072.72-1.152 1.153-1.512 1.153-.36 0-.36-.504-.36-.504a22.18 22.18 0 0 0 1.728-1.8ZM53.258 136.045H51.89l-.683-9.072h2.736l-.685 9.072ZM40.73 136.045H39.36l-.682-9.072h2.736l-.686 9.072ZM85.946 136.045h-1.368l-.683-9.072h2.737l-.686 9.072ZM73.417 136.045h-1.368l-.683-9.072h2.736l-.685 9.072Z" fill="#fff" stroke="#263238" stroke-miterlimit="10"/><path d="M84.039 109.616H51.35v19.008h32.688v-19.008Z" fill="#263238" stroke="#263238" stroke-miterlimit="10"/><path d="M107.749 106.574s3.456-1.44 4.225-2.016c.769-.576 1.823.671 1.342 2.016-.48 1.345-1.728 3.744-3.646 4.896-1.918 1.152-3.456 2.111-3.842 2.494-.385.384-.288 1.826-1.918 2.402-1.63.576-3.649-.576-4.8-2.402-1.153-1.825-1.921-3.07-1.921-3.07s.097-1.345 2.016-2.016c1.918-.671 5.183-.962 5.183-.962l3.361-1.342Z" fill="#fff" stroke="#263238" stroke-miterlimit="10"/><path d="M68.415 94.933s2.278-.553 2.854-.265c.576.288 2.497 2.114 2.497 2.114s11.615.19 12.479.576c.864.386 9.792 7.2 11.713 8.159 1.92.959 3.551 1.823 3.551 1.823l-1.44 6.336v.576l.098.962s-4.994-1.538-6.241-1.826c-1.247-.288-6.431-2.975-6.912-2.975-.481 0-4.415-1.152-4.415-1.152s-.576-.383-6.817-.959c-6.241-.576-13.248-1.25-15.745-1.345-2.497-.095-5.76-.288-7.007-.769-1.247-.481-3.456-3.839-3.84-5.855-.383-2.016 3.647-3.744 5.375-4.513 1.728-.769 8.162-1.728 9.314-1.728 1.152 0 4.536.841 4.536.841Z" fill="#fff" stroke="#263238" stroke-miterlimit="10"/><path d="m70.598 97.741-1.921 2.785 2.592-1.728" fill="#fff"/><path d="m70.598 97.741-1.921 2.785 2.592-1.728" stroke="#263238" stroke-miterlimit="10"/><path d="M100.068 106.093s2.785-2.209 3.361-2.88c.576-.671 2.497-4.32 2.88-5.472.384-1.152 1.345-1.728 2.016-.864.672.864 1.152 2.592 1.536 3.361.383.769-.191 4.51-1.343 5.76s-2.744 4.277-3.073 4.896c-.864 1.63-2.208 1.823-3.072 1.918-.865.095-2.976-2.206-2.976-2.206l.671-4.513Z" fill="#fff" stroke="#263238" stroke-miterlimit="10"/><path d="M57.35 99.662s2.88-.576 5.471-.288c2.593.288 7.872 1.918 10.08 2.494 2.21.576 6.144.864 7.97 1.538 1.825.674 6.624 1.535 10.27 1.535s9.216.481 9.216.481-.766 5.567-.576 6.624c.189.851.446 1.685.769 2.494 0 0-7.393.576-9.504.864-2.112.288-10.657-1.054-12.097-1.44-1.44-.385-3.55-.959-4.895-.959-1.345 0-3.937.576-7.681.959s-9.024-1.247-9.695-1.342c-.67-.095-3.072-.962-3.648-1.345-.577-.383-3.937-6.336-2.785-8.833 1.152-2.496 2.592-2.88 2.592-2.88" fill="#fff"/><path d="M57.35 99.662s2.88-.576 5.471-.288c2.593.288 7.872 1.918 10.08 2.494 2.21.576 6.144.864 7.97 1.538 1.825.674 6.624 1.535 10.27 1.535s9.216.481 9.216.481-.766 5.567-.576 6.624c.189.851.446 1.685.769 2.494 0 0-7.393.576-9.504.864-2.112.288-10.657-1.054-12.097-1.44-1.44-.385-3.55-.959-4.895-.959-1.345 0-3.937.576-7.681.959s-9.024-1.247-9.695-1.342c-.67-.095-3.072-.962-3.648-1.345-.577-.383-3.937-6.336-2.785-8.833 1.152-2.496 2.592-2.88 2.592-2.88" stroke="#263238" stroke-miterlimit="10"/><path d="M75.01 109.348c1.852.368 3.813 1.492 6.465 2.531 3.54 1.386 10.625 1.259 11.538 1.386.913.126 3.231 0 3.231 0" fill="#fff"/><path d="M75.01 109.348c1.852.368 3.813 1.492 6.465 2.531 3.54 1.386 10.625 1.259 11.538 1.386.913.126 3.231 0 3.231 0" stroke="#263238" stroke-miterlimit="10"/><path d="m60.731 110.65 1.057.152c3.076.461 8.928-1.23 11.382-1.538" fill="#fff"/><path d="m60.731 110.65 1.057.152c3.076.461 8.928-1.23 11.382-1.538" stroke="#263238" stroke-miterlimit="10"/><path d="M57.635 110.341s.553 0 1.996.17l-1.996-.17Z" fill="#fff"/><path d="M57.635 110.341s.553 0 1.996.17" stroke="#263238" stroke-miterlimit="10"/><path d="M38.964 93.853s-3.456 0-4.147 3.456c-.691 3.456 2.016 17.712 2.232 21.744.216 4.032.91 9.648.91 9.648h12.24l2.736-34.848H38.964Z" fill="#263238" stroke="#263238" stroke-miterlimit="10"/><path d="M52.935 93.853s-3.456 0-4.32 3.456c-.864 3.456 1.152 17.712 1.152 21.744s.432 9.648.432 9.648h4.32s.432-10.368.432-11.808c0-1.44 1.728-16.416.864-19.44-.864-3.024-1.584-3.312-2.88-3.6Z" fill="#636363" stroke="#263238" stroke-miterlimit="10"/><path d="M81.05 136.045h-1.368l-.683-9.072h2.736l-.685 9.072ZM92.713 136.045h-1.368l-.683-9.072h2.736l-.685 9.072ZM98.185 136.045h-1.368l-.682-9.072h2.736l-.686 9.072ZM109.705 136.045h-1.368l-.683-9.072h2.736l-.685 9.072Z" fill="#fff" stroke="#263238" stroke-miterlimit="10"/><path d="M79.358 115.165h30.082a2.088 2.088 0 0 1 2.088 2.088v14.76H77.256v-14.76a2.085 2.085 0 0 1 2.102-2.088Z" fill="#263238" stroke="#263238" stroke-miterlimit="10"/><path d="M109.455 115.165H98.511a2.087 2.087 0 0 0-2.088 2.088v14.76h15.12v-14.76a2.089 2.089 0 0 0-2.088-2.088Z" fill="#636363" stroke="#263238" stroke-miterlimit="10"/></svg>