<svg width="200" height="200" fill="none" xmlns="http://www.w3.org/2000/svg"><path d="m170.776 129.484-.312 2.8 5.444-6.364c.651.068 1.305.103 1.96.104M163.956 110.172a8.173 8.173 0 0 0-1.308 3.6c-.516 4.652 3.132 9.052 8.644 11.088l-.28 2.5M166.072 107.856c-.354.287-.691.596-1.008.924M186.488 107.856a17.966 17.966 0 0 0-8.356-3.056 17.76 17.76 0 0 0-9.304 1.368M181.656 125.648c5.2-1.076 9.14-4.4 9.6-8.712.336-3.016-1.076-5.924-3.6-8.156" stroke="#263238" stroke-linecap="round" stroke-linejoin="round"/><path d="M168.832 110.948a3.402 3.402 0 0 0 2.552-.544l1.944 1.508c-.136.044-.124-.244.02-.252.144-.008.252.124.352.228.456.484 1.224.5 1.876.36.652-.14 1.288-.4 1.952-.376.395.041.783.131 1.156.268 2.672.828 5.452 1.244 8.22 1.652M166.536 113.792c.4-.024 2.628 0 2.948-.268l.544.948.6-.58c.104.4.208.8.308 1.176.452.108.4-.764.8-1.024a.548.548 0 0 1 .396-.033c.131.04.242.127.312.245.131.246.195.522.184.8l2.736.224.532.044c.19-.29.472-.508.8-.62-.1.632.696.992 1.328 1.12 3.112.635 6.24 1.183 9.384 1.644M167.752 118.136c.252.176.56-.152.868-.192.308-.04.56.192.832.332.272.14.72.08.736-.224.064.4.56.544.964.6l10.504 1.476M27.2 104.472l4.208 5.664-.844-7.412a19.497 19.497 0 0 0 2.876-1.716c4.312-3.12 6.048-8.14 4.468-12.184-1.108-2.824-3.704-4.744-6.984-5.54M10.58 95.536a8.14 8.14 0 0 0 .512 3.78c1.704 4.36 6.976 6.56 12.8 5.8M11.376 92.5c-.179.42-.332.85-.46 1.288M29.456 83.012a17.949 17.949 0 0 0-8.824 1.168 17.752 17.752 0 0 0-7.6 5.536" stroke="#263238" stroke-linecap="round" stroke-linejoin="round"/><path d="M15.256 93.952a3.408 3.408 0 0 0 2-1.664l2.4.432c-.104.1-.224-.16-.1-.236.124-.076.28 0 .4.04.632.216 1.316-.124 1.828-.552.512-.428.952-.96 1.556-1.24.369-.147.754-.25 1.148-.304 2.752-.504 5.404-1.432 8.048-2.356M14.544 97.54c.356-.212 2.328-1.224 2.488-1.6l.924.588c.088-.264.176-.532.26-.8l.82.9c.452-.112 0-.86.216-1.268a.54.54 0 0 1 .724-.14c.228.153.412.365.532.612l2.524-1.072.496-.208c.028-.344.169-.668.4-.924.208.612 1.08.556 1.696.376 3.053-.88 6.079-1.848 9.076-2.904M17.64 100.82c.309.04.429-.4.68-.576.253-.176.589-.084.893-.092.304-.008.676-.26.548-.536.244.324.752.22 1.132.084l10-3.58" stroke="#263238" stroke-linecap="round" stroke-linejoin="round"/><path d="M149.172 35.848H49.436a3.516 3.516 0 0 0-3.516 3.516v89.848a3.516 3.516 0 0 0 3.516 3.516h99.736a3.516 3.516 0 0 0 3.516-3.516V39.364a3.516 3.516 0 0 0-3.516-3.516Z" fill="#fff"/><path opacity=".2" d="M152.688 88.916v40.4a3.412 3.412 0 0 1-3.408 3.412H49.332a3.415 3.415 0 0 1-3.412-3.412v-8h.212v5.392a3.897 3.897 0 0 0 2.41 3.604c.474.196.981.296 1.494.296h96.556a3.91 3.91 0 0 0 2.76-1.141 3.9 3.9 0 0 0 1.144-2.759v-31.8a2.714 2.714 0 0 0-2.716-2.716H45.92v-3.276h106.768Z" fill="#000"/><path d="M149.172 35.848H49.436a3.516 3.516 0 0 0-3.516 3.516v89.848a3.516 3.516 0 0 0 3.516 3.516h99.736a3.516 3.516 0 0 0 3.516-3.516V39.364a3.516 3.516 0 0 0-3.516-3.516Z" stroke="#263238" stroke-linecap="round" stroke-linejoin="round"/><path d="M143.392 100.42v-4.628a1.696 1.696 0 0 0-.5-1.212 1.707 1.707 0 0 0-1.212-.5H56.928a1.712 1.712 0 0 0-1.712 1.712v4.628a1.715 1.715 0 0 1-1.712 1.712 1.716 1.716 0 0 0-1.716 1.716v9.132a7.938 7.938 0 0 0 7.94 7.94 1.273 1.273 0 0 1 1.276 1.276v2.736a3.809 3.809 0 0 0 3.808 3.808h68.984a3.809 3.809 0 0 0 3.808-3.808v-2.736a1.277 1.277 0 0 1 1.276-1.276 7.944 7.944 0 0 0 5.615-2.326 7.934 7.934 0 0 0 2.325-5.614v-9.132a1.717 1.717 0 0 0-1.712-1.716 1.717 1.717 0 0 1-1.716-1.712Z" fill="#263238"/><path d="M61.708 96.7h-2.964a1.368 1.368 0 0 0-1.368 1.368v.76c0 1.576 1.276 3.576 2.852 3.576 1.576 0 2.852-2 2.852-3.576v-.76a1.372 1.372 0 0 0-1.372-1.368ZM68.8 96.7h-2.964a1.372 1.372 0 0 0-1.372 1.368v.76c0 1.576 1.276 3.576 2.852 3.576 1.576 0 2.852-2 2.852-3.576v-.76A1.368 1.368 0 0 0 68.8 96.7ZM75.92 96.7h-2.963a1.368 1.368 0 0 0-1.368 1.368v.76c0 1.576 1.276 3.576 2.848 3.576 1.572 0 2.852-2 2.852-3.576v-.76A1.368 1.368 0 0 0 75.92 96.7ZM83.024 96.7H80.06a1.368 1.368 0 0 0-1.368 1.368v.76c0 1.576 1.276 3.576 2.852 3.576 1.576 0 2.848-2 2.848-3.576v-.76a1.367 1.367 0 0 0-1.368-1.368ZM90.128 96.7h-2.964a1.368 1.368 0 0 0-1.368 1.368v.76c0 1.576 1.276 3.576 2.852 3.576 1.576 0 2.852-2 2.852-3.576v-.76a1.372 1.372 0 0 0-1.372-1.368ZM97.236 96.7h-2.964a1.372 1.372 0 0 0-1.372 1.368v.76c0 1.576 1.276 3.576 2.852 3.576 1.576 0 2.852-2 2.852-3.576v-.76a1.368 1.368 0 0 0-1.368-1.368ZM104.34 96.7h-2.964a1.37 1.37 0 0 0-1.368 1.368v.76c0 1.576 1.276 3.576 2.848 3.576 1.572 0 2.852-2 2.852-3.576v-.76a1.366 1.366 0 0 0-1.368-1.368ZM111.444 96.7h-2.964a1.368 1.368 0 0 0-1.368 1.368v.76c0 1.576 1.276 3.576 2.852 3.576 1.576 0 2.848-2 2.848-3.576v-.76a1.37 1.37 0 0 0-1.368-1.368ZM118.548 96.7H115.6a1.369 1.369 0 0 0-1.368 1.368v.76c0 1.576 1.276 3.576 2.852 3.576 1.576 0 2.852-2 2.852-3.576v-.76a1.368 1.368 0 0 0-1.388-1.368ZM125.656 96.7h-2.964a1.37 1.37 0 0 0-1.372 1.368v.76c0 1.576 1.276 3.576 2.852 3.576 1.576 0 2.852-2 2.852-3.576v-.76a1.37 1.37 0 0 0-1.368-1.368ZM132.761 96.7h-2.964a1.37 1.37 0 0 0-1.368 1.368v.76c0 1.576 1.276 3.576 2.848 3.576 1.572 0 2.852-2 2.852-3.576v-.76a1.366 1.366 0 0 0-1.368-1.368ZM139.864 96.7H136.9a1.366 1.366 0 0 0-1.368 1.368v.76c0 1.572 1.268 3.572 2.868 3.572 1.6 0 2.848-2 2.848-3.576v-.76a1.358 1.358 0 0 0-.408-.97 1.363 1.363 0 0 0-.976-.394ZM61.708 111.756h-2.964a1.366 1.366 0 0 0-1.368 1.368v.76c0 1.576 1.276 3.576 2.852 3.576 1.576 0 2.852-2 2.852-3.576v-.76a1.374 1.374 0 0 0-1.372-1.368ZM68.8 111.756h-2.964a1.374 1.374 0 0 0-1.372 1.368v.76c0 1.576 1.276 3.576 2.852 3.576 1.576 0 2.852-2 2.852-3.576v-.76a1.366 1.366 0 0 0-1.368-1.368ZM75.92 111.756h-2.963a1.367 1.367 0 0 0-1.368 1.368v.76c0 1.576 1.276 3.576 2.848 3.576 1.572 0 2.852-2 2.852-3.576v-.76a1.366 1.366 0 0 0-1.368-1.368ZM83.024 111.756H80.06a1.366 1.366 0 0 0-1.368 1.368v.76c0 1.576 1.276 3.576 2.852 3.576 1.576 0 2.848-2 2.848-3.576v-.76a1.368 1.368 0 0 0-1.368-1.368ZM90.128 111.756h-2.964a1.366 1.366 0 0 0-1.368 1.368v.76c0 1.576 1.276 3.576 2.852 3.576 1.576 0 2.852-2 2.852-3.576v-.76a1.374 1.374 0 0 0-1.372-1.368ZM97.236 111.756h-2.964a1.373 1.373 0 0 0-1.372 1.368v.76c0 1.576 1.276 3.576 2.852 3.576 1.576 0 2.852-2 2.852-3.576v-.76a1.366 1.366 0 0 0-1.368-1.368ZM104.34 111.756h-2.964a1.368 1.368 0 0 0-1.368 1.368v.76c0 1.576 1.276 3.576 2.848 3.576 1.572 0 2.852-2 2.852-3.576v-.76c0-.363-.144-.711-.401-.967a1.364 1.364 0 0 0-.967-.401ZM111.444 111.756h-2.964a1.366 1.366 0 0 0-1.368 1.368v.76c0 1.576 1.276 3.576 2.852 3.576 1.576 0 2.848-2 2.848-3.576v-.76a1.368 1.368 0 0 0-1.368-1.368ZM118.548 111.756H115.6a1.363 1.363 0 0 0-1.263.844 1.365 1.365 0 0 0-.105.524v.76c0 1.576 1.276 3.576 2.852 3.576 1.576 0 2.852-2 2.852-3.576v-.76a1.363 1.363 0 0 0-.859-1.269 1.385 1.385 0 0 0-.529-.099ZM125.656 111.756h-2.964a1.372 1.372 0 0 0-1.372 1.368v.76c0 1.576 1.276 3.576 2.852 3.576 1.576 0 2.852-2 2.852-3.576v-.76a1.368 1.368 0 0 0-1.368-1.368ZM132.761 111.756h-2.964a1.368 1.368 0 0 0-1.368 1.368v.76c0 1.576 1.276 3.576 2.848 3.576 1.572 0 2.852-2 2.852-3.576v-.76a1.366 1.366 0 0 0-1.368-1.368ZM139.864 111.756H136.9c-.363 0-.711.144-.967.401a1.364 1.364 0 0 0-.401.967v.76c0 1.576 1.276 3.576 2.852 3.576 1.576 0 2.848-2 2.848-3.576v-.76a1.368 1.368 0 0 0-1.368-1.368ZM58.156 104.472H55.2a1.366 1.366 0 0 0-1.368 1.368v.76c0 1.572 1.276 3.576 2.852 3.576 1.576 0 2.848-2 2.848-3.576v-.76a1.365 1.365 0 0 0-.85-1.266 1.375 1.375 0 0 0-.526-.102ZM65.26 104.472h-2.963a1.366 1.366 0 0 0-1.368 1.368v.76c0 1.572 1.276 3.576 2.852 3.576 1.576 0 2.852-2 2.852-3.576v-.76a1.374 1.374 0 0 0-1.372-1.368ZM72.368 104.472h-2.964a1.373 1.373 0 0 0-1.372 1.368v.76c0 1.572 1.28 3.576 2.852 3.576 1.572 0 2.852-2 2.852-3.576v-.76a1.366 1.366 0 0 0-1.368-1.368ZM79.473 104.472h-2.964a1.366 1.366 0 0 0-1.368 1.368v.76c0 1.572 1.276 3.576 2.848 3.576 1.572 0 2.852-2 2.852-3.576v-.76a1.37 1.37 0 0 0-1.368-1.368ZM86.576 104.472H83.6a1.366 1.366 0 0 0-1.368 1.368v.76c0 1.572 1.276 3.576 2.852 3.576 1.576 0 2.848-2 2.848-3.576v-.76a1.367 1.367 0 0 0-1.356-1.368ZM93.68 104.472h-2.964a1.367 1.367 0 0 0-1.368 1.368v.76c0 1.572 1.276 3.576 2.852 3.576 1.576 0 2.852-2 2.852-3.576v-.76a1.374 1.374 0 0 0-1.372-1.368ZM100.8 104.472h-2.964a1.374 1.374 0 0 0-1.372 1.368v.76c0 1.572 1.28 3.576 2.852 3.576 1.572 0 2.852-2 2.852-3.576v-.76c0-.363-.144-.711-.401-.967a1.364 1.364 0 0 0-.967-.401ZM107.893 104.472h-2.964a1.368 1.368 0 0 0-1.368 1.368v.76c0 1.572 1.276 3.576 2.848 3.576 1.572 0 2.852-2 2.852-3.576v-.76a1.369 1.369 0 0 0-1.368-1.368ZM114.996 104.472h-2.964c-.363 0-.711.144-.967.401a1.364 1.364 0 0 0-.401.967v.76c0 1.572 1.276 3.576 2.852 3.576 1.576 0 2.848-2 2.848-3.576v-.76c0-.363-.144-.711-.401-.967a1.364 1.364 0 0 0-.967-.401ZM122.101 104.472h-2.964a1.368 1.368 0 0 0-1.368 1.368v.76c0 1.572 1.276 3.576 2.852 3.576 1.576 0 2.852-2 2.852-3.576v-.76a1.376 1.376 0 0 0-1.372-1.368ZM129.2 104.472h-2.964a1.372 1.372 0 0 0-1.372 1.368v.76c0 1.572 1.28 3.576 2.852 3.576 1.572 0 2.852-2 2.852-3.576v-.76a1.368 1.368 0 0 0-1.368-1.368ZM136.312 104.472h-2.964A1.366 1.366 0 0 0 132 105.84v.76c0 1.572 1.276 3.576 2.848 3.576 1.572 0 2.852-2 2.852-3.576v-.76a1.368 1.368 0 0 0-1.388-1.368ZM143.416 104.472h-2.964c-.363 0-.711.144-.967.401a1.364 1.364 0 0 0-.401.967v.76c0 1.572 1.276 3.576 2.852 3.576 1.576 0 2.848-2 2.848-3.576v-.76c0-.363-.144-.711-.401-.967a1.364 1.364 0 0 0-.967-.401ZM126.441 119.34H72.169c-.71 0-1.284.575-1.284 1.284v3.896c0 .709.575 1.284 1.284 1.284h54.272c.709 0 1.284-.575 1.284-1.284v-3.896c0-.709-.575-1.284-1.284-1.284ZM133.708 119.72h-2.964c-.363 0-.711.144-.967.401a1.364 1.364 0 0 0-.401.967v.76c0 1.576 1.276 3.576 2.852 3.576 1.576 0 2.848-2 2.848-3.576v-.76c0-.363-.144-.711-.401-.967a1.364 1.364 0 0 0-.967-.401ZM67.864 119.72H64.9a1.366 1.366 0 0 0-1.368 1.368v.76c0 1.576 1.276 3.576 2.852 3.576 1.576 0 2.852-2 2.852-3.576v-.76a1.374 1.374 0 0 0-1.372-1.368Z" fill="#fff" stroke="#263238" stroke-linecap="round" stroke-linejoin="round"/><path opacity=".2" d="M61.872 98.872c.144 0 .287.014.428.04v-.844a.596.596 0 0 0-.596-.592H58.74a.596.596 0 0 0-.592.592v.76c0 1.092.8 2.468 1.744 2.744-.292-1.212.364-2.7 1.98-2.7ZM69.136 98.668c.09-.006.181-.006.272 0v-.616a.596.596 0 0 0-.592-.592h-2.964a.596.596 0 0 0-.596.592v.76c0 1.2.948 2.7 2 2.8-.484-1.24.152-2.944 1.88-2.944ZM76.452 98.564h.06v-.5a.592.592 0 0 0-.592-.592h-2.964a.596.596 0 0 0-.596.592v.76c0 1.22 1.008 2.8 2.076 2.8.052.004.104.004.156 0-.536-1.264.084-3.06 1.86-3.06ZM83.104 98.36a2.28 2.28 0 0 1 .496.04v-.348a.592.592 0 0 0-.592-.592h-2.964a.592.592 0 0 0-.592.592v.76c0 1.144.88 2.6 1.872 2.8-.68-1.256-.092-3.252 1.78-3.252ZM90.572 98.36h.152v-.3a.596.596 0 0 0-.596-.592h-2.964a.596.596 0 0 0-.592.592v.76c0 1.22 1.008 2.8 2.076 2.8.055.004.11.004.164 0-.7-1.26-.112-3.26 1.76-3.26ZM97.737 98.4h.092v-.348a.596.596 0 0 0-.592-.592h-2.964a.596.596 0 0 0-.596.592v.76c0 1.22 1.008 2.8 2.076 2.8.065.006.13.006.196 0-.656-1.26-.06-3.212 1.788-3.212ZM104.592 98.36c.114.002.227.01.34.024v-.316a.592.592 0 0 0-.592-.592h-2.964a.59.59 0 0 0-.592.592v.76c0 1.2.992 2.776 2.052 2.8-.708-1.256-.124-3.268 1.756-3.268ZM112.036 98.464v-.4a.593.593 0 0 0-.592-.592h-2.964a.593.593 0 0 0-.592.592v.76c0 1.22 1.004 2.8 2.076 2.8.107-.002.214-.019.316-.052-.576-1.232.012-3.052 1.756-3.108ZM118.56 98.308c.197 0 .393.025.584.076v-.316a.594.594 0 0 0-.596-.592H115.6a.597.597 0 0 0-.592.592v.76c0 1.128.856 2.552 1.828 2.768-.748-1.252-.168-3.288 1.724-3.288ZM125.825 98.308c.142 0 .284.014.424.04v-.28a.595.595 0 0 0-.592-.592h-2.964a.593.593 0 0 0-.596.592v.76c0 1.2.96 2.724 2 2.8-.752-1.256-.176-3.32 1.728-3.32ZM133.04 98.512c.104.002.209.01.312.024v-.468a.592.592 0 0 0-.592-.592h-2.964a.584.584 0 0 0-.419.173.587.587 0 0 0-.173.419v.76c0 1.2.96 2.72 2 2.8-.58-1.264.032-3.116 1.836-3.116ZM140.457 98.42v-.352a.593.593 0 0 0-.592-.592h-2.964a.593.593 0 0 0-.592.592v.76c0 1.22 1.004 2.8 2.076 2.8.154-.002.306-.035.448-.096-.568-1.208-.032-2.976 1.624-3.112ZM62.076 113.2c.076-.004.152-.004.228 0v-.084a.597.597 0 0 0-.596-.592h-2.964a.595.595 0 0 0-.592.592v.76c0 1.22 1.008 2.8 2.076 2.8.074-.002.148-.01.22-.024-.896-1.216-.352-3.452 1.628-3.452ZM69.036 113.2c.124 0 .249.011.372.032v-.104a.593.593 0 0 0-.592-.592h-2.964a.596.596 0 0 0-.596.592v.76c0 1.22 1.008 2.8 2.076 2.8h.088c-.916-1.232-.376-3.488 1.616-3.488ZM76.097 113.3c.134 0 .268.012.4.036v-.212a.595.595 0 0 0-.366-.547.587.587 0 0 0-.226-.045H72.94a.596.596 0 0 0-.596.592v.76c0 1.2.992 2.772 2.052 2.8-.796-1.244-.24-3.384 1.7-3.384ZM83.308 113.352c.103 0 .206.007.308.02v-.248a.593.593 0 0 0-.592-.592H80.06a.588.588 0 0 0-.547.365.595.595 0 0 0-.045.227v.76c0 1.22 1.004 2.8 2.076 2.8h.048c-.768-1.252-.196-3.332 1.716-3.332ZM90.268 113.2c.153 0 .306.015.456.044v-.116a.598.598 0 0 0-.596-.592h-2.964a.595.595 0 0 0-.592.592v.76c0 1.22 1.008 2.8 2.076 2.8-.912-1.224-.376-3.488 1.62-3.488ZM97.48 113.248c.117.001.234.01.349.028v-.152a.593.593 0 0 0-.592-.592h-2.964a.596.596 0 0 0-.596.592v.76c0 1.22 1.008 2.8 2.076 2.8h.076c-.864-1.24-.312-3.436 1.652-3.436ZM104.848 113.4h.084v-.28a.593.593 0 0 0-.592-.592h-2.964a.59.59 0 0 0-.592.592v.76c0 1.22 1.004 2.8 2.072 2.8.078-.001.156-.011.232-.028-.688-1.248-.116-3.252 1.76-3.252ZM112 113.248h.024v-.124a.608.608 0 0 0-.045-.227.607.607 0 0 0-.321-.32.588.588 0 0 0-.226-.045h-2.952a.59.59 0 0 0-.592.592v.76c0 1.22 1.004 2.8 2.076 2.8.122-.002.244-.023.36-.064-.812-1.24-.248-3.372 1.676-3.372ZM118.916 113.096h.224a.595.595 0 0 0-.592-.572H115.6a.596.596 0 0 0-.592.592v.76c0 1.22 1.008 2.8 2.076 2.8.097-.003.194-.018.288-.044-1.004-1.192-.484-3.536 1.544-3.536ZM126.236 113.2v-.072a.592.592 0 0 0-.175-.417.592.592 0 0 0-.417-.175h-2.964a.597.597 0 0 0-.596.592v.76c0 1.22 1.008 2.8 2.076 2.8.136-.002.271-.026.4-.072-.836-1.24-.284-3.416 1.676-3.416ZM133.2 113.2h.16v-.08a.59.59 0 0 0-.592-.592h-2.964a.593.593 0 0 0-.592.592v.76c0 1.22 1.004 2.8 2.072 2.8a1.1 1.1 0 0 0 .28-.04c-.892-1.224-.344-3.44 1.636-3.44ZM140.201 113.504h.256v-.4a.594.594 0 0 0-.592-.592h-2.964a.593.593 0 0 0-.592.592v.76c0 1.22 1.004 2.8 2.076 2.8-.62-1.24-.02-3.16 1.816-3.16ZM58.7 106.036h.052v-.196a.597.597 0 0 0-.596-.592H55.2a.592.592 0 0 0-.592.592v.76c0 1.22 1.004 2.8 2.076 2.8.103-.003.206-.019.304-.048-.768-1.248-.188-3.316 1.712-3.316ZM65.656 106.036h.2v-.204a.597.597 0 0 0-.596-.592h-2.964a.595.595 0 0 0-.592.592v.76c0 1.22 1.008 2.8 2.076 2.8.059.004.117.004.176 0-.788-1.252-.22-3.356 1.7-3.356ZM72.924 106.036h.036v-.196a.593.593 0 0 0-.592-.592h-2.964a.59.59 0 0 0-.604.592v.76c0 1.22 1.008 2.8 2.076 2.8a1.06 1.06 0 0 0 .316-.052c-.748-1.244-.176-3.312 1.732-3.312ZM79.88 106h.184v-.152a.593.593 0 0 0-.592-.592h-2.964a.592.592 0 0 0-.592.592v.76c0 1.22 1.004 2.8 2.072 2.8.073-.002.145-.01.216-.024-.828-1.244-.268-3.384 1.676-3.384ZM86.8 106.036c.127 0 .254.011.38.032v-.228a.593.593 0 0 0-.592-.592H83.6a.592.592 0 0 0-.592.592v.76c0 1.22 1.004 2.8 2.076 2.8-.792-1.244-.228-3.364 1.716-3.364ZM93.952 105.78c.107 0 .214.007.32.02a.595.595 0 0 0-.592-.552h-2.964a.595.595 0 0 0-.592.592v.76c0 1.22 1.008 2.8 2.076 2.8.077-.001.153-.011.228-.028-1.04-1.188-.532-3.592 1.524-3.592ZM101.112 106.084h.268v-.26a.596.596 0 0 0-.592-.592h-2.963a.595.595 0 0 0-.597.592v.76c0 1.22 1.009 2.8 2.077 2.8h.08c-.749-1.24-.184-3.3 1.727-3.3ZM108.484 105.84a.593.593 0 0 0-.592-.592h-2.964a.59.59 0 0 0-.592.592v.76c0 1.22 1.004 2.8 2.072 2.8a1.3 1.3 0 0 0 .608-.168c-.808-1.192-.32-3.232 1.468-3.392ZM115.6 106v-.152a.593.593 0 0 0-.592-.592h-2.964a.59.59 0 0 0-.592.592v.76c0 1.22 1.004 2.8 2.076 2.8.172-.003.341-.042.496-.116-.732-1.22-.208-3.192 1.576-3.292ZM122.448 105.88h.248v-.052a.596.596 0 0 0-.596-.592h-2.964a.592.592 0 0 0-.417.175.592.592 0 0 0-.175.417v.76c0 1.22 1.008 2.8 2.076 2.8.075-.001.151-.011.224-.028-.928-1.204-.396-3.48 1.604-3.48ZM129.8 106.14v-.3a.596.596 0 0 0-.592-.592h-2.964a.597.597 0 0 0-.596.592v.76c0 1.22 1.008 2.8 2.076 2.8.121-.002.241-.022.356-.06-.652-1.24-.08-3.152 1.72-3.2ZM136.569 105.932c.112.002.224.01.336.024v-.116a.594.594 0 0 0-.592-.592h-2.964a.59.59 0 0 0-.592.592v.76c0 1.22 1.004 2.8 2.072 2.8.037.002.075.002.112 0-.896-1.236-.352-3.468 1.628-3.468ZM143.732 106.24c.092-.006.184-.006.276 0v-.4a.593.593 0 0 0-.592-.592h-2.964a.59.59 0 0 0-.592.592v.76c0 1.2.996 2.8 2.064 2.8-.624-1.26-.02-3.16 1.808-3.16ZM126.948 124.544V120.6a.484.484 0 0 0-.484-.484h-54.32a.484.484 0 0 0-.484.484v3.944c0 .267.217.484.484.484h54.32a.484.484 0 0 0 .484-.484ZM134.3 121.484v-.4a.59.59 0 0 0-.592-.592h-2.964a.588.588 0 0 0-.547.365.608.608 0 0 0-.045.227v.76c0 1.22 1.004 2.8 2.076 2.8.089-.002.178-.014.264-.036-.592-1.248.012-3.112 1.808-3.124ZM68.112 121.228c.116.001.233.01.348.028v-.168a.597.597 0 0 0-.596-.592H64.9a.595.595 0 0 0-.592.592v.76c0 1.22 1.008 2.8 2.076 2.8h.068c-.852-1.24-.292-3.42 1.66-3.42ZM50.28 37.8h98.048a2.539 2.539 0 0 1 2.54 2.54v22.4H47.74v-22.4a2.54 2.54 0 0 1 2.54-2.54Z" fill="#000"/><path d="M140.312 42.024h-82a93.203 93.203 0 0 0-3.6-16.74h89.216a89.435 89.435 0 0 0-3.616 16.74Z" fill="#fff"/><path opacity=".2" d="M141.12 36.628c-.596 3.256-.8 5.396-.8 5.396h-82s-.208-2.1-.82-5.396h83.62Z" fill="#000"/><path d="M140.312 42.024h-82a93.203 93.203 0 0 0-3.6-16.74h89.216a89.435 89.435 0 0 0-3.616 16.74v0Z" stroke="#263238" stroke-linecap="round" stroke-linejoin="round"/><path d="M139.196 56.12H58.752v33.096h80.444V56.12Z" fill="#263238"/><g opacity=".4" fill="#fff"><path opacity=".4" d="m96.969 86.288.424.02 1.6-24.8c-.68 8.283-1.355 16.543-2.024 24.78ZM95.6 86.184l.425.036c.925-8.2 1.849-16.436 2.772-24.708-1.064 8.277-2.13 16.501-3.196 24.672ZM94.269 86.032c.14 0 .284.032.424.048 1.312-8.112 2.632-16.303 3.96-24.572a8082.784 8082.784 0 0 1-4.384 24.524ZM92.92 85.828l.428.068c1.701-8 3.416-16.133 5.144-24.4a3771.63 3771.63 0 0 1-5.572 24.332ZM91.576 85.576l.432.088c2.08-7.848 4.188-15.901 6.324-24.16a2321.646 2321.646 0 0 1-6.756 24.072ZM90.24 85.272l.432.108a2061.299 2061.299 0 0 0 7.5-23.88c-2.676 8.252-5.344 16.172-7.932 23.772ZM88.908 84.912l.436.128c2.8-7.456 5.732-15.304 8.668-23.548-3.084 8.244-6.156 16.048-9.104 23.42ZM87.6 84.504l.436.14c3.164-7.2 6.484-14.924 9.828-23.156-3.508 8.232-6.98 15.9-10.264 23.016ZM86.272 84.036l.44.16c3.504-6.928 7.228-14.496 10.98-22.716-3.907 8.22-7.787 15.72-11.42 22.556ZM84.977 83.508l.44.184c3.824-6.616 7.952-14 12.116-22.22-4.332 8.204-8.608 15.548-12.556 22.036ZM83.692 82.916l.44.212c4.128-6.26 8.66-13.48 13.24-21.664-4.744 8.184-9.432 15.336-13.68 21.452ZM82.428 82.26l.44.24c4.4-5.868 9.348-12.884 14.344-21.048A240.715 240.715 0 0 1 82.428 82.26Z"/><path opacity=".4" d="M81.2 81.54c.144.092.296.176.444.264a209.108 209.108 0 0 0 15.424-20.36A190.26 190.26 0 0 1 81.2 81.54Z"/><path opacity=".4" d="m79.973 80.744.436.3a166.325 166.325 0 0 0 16.484-19.6 152.1 152.1 0 0 1-16.92 19.3Z"/><path opacity=".4" d="M96.732 61.42C90.296 69.48 84 75.628 78.8 79.876l.428.332A134.66 134.66 0 0 0 96.732 61.42Z"/><path opacity=".4" d="M96.572 61.408c-6.856 8-13.556 13.848-18.912 17.528l.424.364c5.284-3.912 11.812-9.872 18.488-17.892Z"/><path opacity=".4" d="M96.4 61.396c-7.268 7.94-14.348 13.444-19.824 16.516.132.136.264.272.4.4 5.424-3.32 12.348-8.956 19.424-16.916Z"/><path opacity=".4" d="M96.252 61.38c-7.664 7.86-15.112 13-20.676 15.44l.4.436c5.508-2.708 12.788-7.992 20.276-15.876Z"/><path opacity=".4" d="M74.656 75.652c.116.16.236.32.356.476 5.58-2.06 13.2-6.976 21.084-14.76-8.044 7.748-15.828 12.504-21.44 14.284Z"/><path opacity=".4" d="M73.84 74.436c.104.168.212.336.32.504 5.6-1.408 13.552-5.932 21.776-13.6-8.384 7.624-16.476 11.98-22.096 13.096Z"/><path opacity=".4" d="M73.144 73.2c.088.176.18.348.272.524 5.6-.76 13.824-4.884 22.36-12.38C87.1 68.768 78.744 72.72 73.144 73.2Z"/><path opacity=".4" d="M72.576 71.936c.072.176.148.356.224.532 5.568-.136 14-3.852 22.8-11.152-8.9 7.224-17.464 10.76-23.024 10.62ZM98.324 86.344h.42c.128-8.267.261-16.544.4-24.832-.28 8.283-.553 16.56-.82 24.832ZM99.676 86.352h.424l-.8-24.832.376 24.832ZM101.028 86.316h.424c-.667-8.24-1.333-16.507-2-24.8l1.576 24.8ZM102.4 86.232l.424-.032c-1.067-8.179-2.133-16.408-3.2-24.688.917 8.28 1.843 16.52 2.776 24.72ZM103.732 86.104l.424-.052c-1.451-8.083-2.917-16.264-4.4-24.544 1.336 8.28 2.661 16.479 3.976 24.596ZM105.08 85.924l.428-.064c-1.84-7.96-3.7-16.077-5.58-24.352a5699.638 5699.638 0 0 0 5.152 24.416ZM106.424 85.696l.428-.08a3357.68 3357.68 0 0 1-6.764-24.112c2.128 8.272 4.24 16.336 6.336 24.192ZM107.76 85.416l.436-.1c-2.592-7.6-5.264-15.548-7.948-23.816 2.536 8.27 5.04 16.241 7.512 23.916ZM109.096 85.088l.432-.124c-2.952-7.388-6.028-15.2-9.12-23.472 2.94 8.264 5.868 16.108 8.688 23.596ZM110.42 84.7l.44-.144c-3.308-7.128-6.8-14.8-10.292-23.068 3.352 8.252 6.68 15.984 9.852 23.212ZM111.737 84.256l.44-.164c-3.64-6.836-7.528-14.368-11.448-22.612 3.764 8.244 7.496 15.828 11.008 22.776ZM113.041 83.756c.148-.064.3-.12.444-.184-3.96-6.504-8.256-13.868-12.596-22.1 4.18 8.232 8.312 15.652 12.152 22.284ZM114.332 83.2l.444-.212c-4.26-6.132-8.968-13.304-13.728-21.52 4.596 8.208 9.14 15.452 13.284 21.732ZM115.6 82.572c.148-.076.296-.16.44-.24a242.022 242.022 0 0 1-14.84-20.88c5.024 8.2 10 15.236 14.4 21.12ZM116.856 81.88l.448-.264a190.78 190.78 0 0 1-15.936-20.172 209.086 209.086 0 0 0 15.488 20.436Z"/><path opacity=".4" d="M101.528 61.432a166.541 166.541 0 0 0 16.556 19.688l.444-.3a152.385 152.385 0 0 1-17-19.388Z"/><path opacity=".4" d="M101.688 61.42a134.3 134.3 0 0 0 17.6 18.864c.148-.108.288-.22.432-.332-5.216-4.248-11.56-10.424-18.032-18.532Z"/><path opacity=".4" d="M101.849 61.408c6.72 8.068 13.288 14.052 18.588 17.964.144-.12.292-.24.432-.364-5.376-3.672-12.12-9.536-19.02-17.6Z"/><path opacity=".4" d="M102 61.396c7.14 8 14.1 13.676 19.54 16.992.14-.132.272-.272.4-.4-5.48-3.068-12.612-8.592-19.94-16.592Z"/><path opacity=".4" d="M102.168 61.38c7.548 7.944 14.884 13.252 20.4 15.94l.4-.44c-5.564-2.412-13.072-7.572-20.8-15.5Z"/><path opacity=".4" d="M123.556 76.184c.124-.16.24-.32.36-.484-5.62-1.74-13.476-6.512-21.6-14.332 7.952 7.852 15.648 12.784 21.24 14.816Z"/><path opacity=".4" d="m124.424 74.98.328-.512c-5.628-1.06-13.796-5.428-22.268-13.116 8.316 7.732 16.316 12.268 21.94 13.628Z"/><path opacity=".4" d="M125.2 73.736a22.3 22.3 0 0 0 .28-.532c-5.6-.4-14.044-4.356-22.8-11.868 8.592 7.576 16.92 11.708 22.52 12.4Z"/><path opacity=".4" d="M102.8 61.316c8.896 7.384 17.44 11.1 23 11.156.08-.18.156-.36.232-.54-5.552.228-14.208-3.312-23.232-10.616Z"/></g><path opacity=".2" d="M87.6 62.108c-1.516 3.888.124 15.2 11.064 15.2s14.912-7.948 14.468-12.86l14.604-2.352s4.476 12.368-5.028 21.02-42.448 8.092-49.412 1.516c-6.964-6.576-3.1-19.568-3.1-19.568L87.6 62.108Z" fill="#000"/><path d="M151.696 45.332v-2.728a.472.472 0 0 1 .332-.452l2-.624V38.8a1.232 1.232 0 0 1 1.232-1.232h2.4a.457.457 0 0 1 .464.432v.88a.454.454 0 0 1-.452.456h-3.052v2.668a.474.474 0 0 1-.228.4l-1.704 1.032v1.9l-.992-.004Z" fill="#999" stroke="#263238" stroke-linecap="round" stroke-linejoin="round"/><path d="M154.328 45.332h-2.632v7.872h2.632v-7.872Z" fill="#263238"/><path d="M157.62 44.664h-3.292v9.208h3.292v-9.208Z" fill="#757575"/><path opacity=".2" d="M157.612 50.272h-3.284v3.6h3.284v-3.6Z" fill="#000"/><path d="M157.62 44.664h-3.292v9.208h3.292v-9.208Z" stroke="#263238" stroke-linecap="round" stroke-linejoin="round"/><path d="M44.28 53.2h2.632v-7.872H44.28V53.2Z" fill="#263238"/><path d="M40.988 53.868h3.292V44.66h-3.292v9.208Z" fill="#757575"/><path opacity=".2" d="M44.284 50.272h-3.292v3.512h3.292v-3.512Z" fill="#000"/><path d="M40.988 53.868h3.292V44.66h-3.292v9.208Z" stroke="#263238" stroke-linecap="round" stroke-linejoin="round"/><path d="M46.516 49.736a3.2 3.2 0 0 0-.944-3.6l-1.936-1.6a1.172 1.172 0 0 0-1.704.208l-7.676 10.588a1.148 1.148 0 0 0-.224.684v11.372A1.152 1.152 0 0 0 35.2 68.54a1.152 1.152 0 0 0 1.152-1.152v-9.236c0-.228.072-.45.204-.636l5.74-8a.624.624 0 0 1 .912-.112l1.056.896a1.42 1.42 0 0 0 2.252-.564Z" fill="#fff" stroke="#263238" stroke-linecap="round" stroke-linejoin="round"/><path d="M44.932 48.7a.548.548 0 1 0 0-1.096.548.548 0 0 0 0 1.096Z" fill="#999" stroke="#263238" stroke-linecap="round" stroke-linejoin="round"/><path d="M149.256 41.528h-99.9V57h99.9V41.528Z" fill="#263238"/><path opacity=".2" d="M147.812 42.692H50.76a.552.552 0 0 0-.552.552v2.504c0 .305.247.552.552.552h97.052a.552.552 0 0 0 .552-.552v-2.504a.552.552 0 0 0-.552-.552Z" fill="#fff"/><path d="M140.312 60.112h-82a42.973 42.973 0 0 1-3.6-16.74h89.216c0 7.752-3.616 16.74-3.616 16.74Z" fill="#fff"/><g opacity=".7" stroke="#263238" stroke-linecap="round" stroke-linejoin="round"><path opacity=".7" d="M64.944 58.856s1.796-.096 2.8-.7c1.004-.604.932.544 1.508.62.576.076 1.936-.4 2.656-.4.72 0 .172.44.984.4.812-.04.376.04.8-.04l3.476-.58s1.764-.34 2.12-.168c.356.172.824 1.02 1.344.8.52-.22.244-.4 1.028-.4.485.002.967.072 1.432.208 0 0 .072-.204.432-.208h.644s1.364.36 1.58.36c.216 0 1.828-.356 1.884-.36.056-.004 1.6-.4 1.6-.4.328.343.743.589 1.2.712.584.076 1.2-.08 1.64.116.44.196 1.888-.08 1.888-.08.346.002.69.03 1.032.08a2.7 2.7 0 0 0 1.356-.04 5.167 5.167 0 0 1 2.48-.04c1.3.236 2.496-.356 3.048-.36.552-.004 2.76.244 3.52.244.76 0 2.772.272 4.172.116 1.4-.156 2.316.196 3.256.196s1.944-.04 2.16-.04c.216 0 1.256-.68 2.744-.516 1.488.164.164-.204 1.08 0s1.64.4 2.028.44c.312.018.624.005.932-.04l1.6-.116h7.976M63.284 55.768s4.94 0 5.832-.08c.892-.08 1.368-.536 1.844-.536s2.88.456 2.88.456a.8.8 0 0 1 .8-.456c.652 0 .32.06.92.3.6.24.288 0 .604.236.471.212.97.357 1.48.432 0 0 2.228.104 2.312-.432.084-.536 1.2.432 1.2.432s3.024-.432 4.192-.432c1.168 0 4.096-.236 4.096-.236s2.4.316 2.512.316c.112 0 .508.628.936.352.428-.276.84-.592 1.348-.512.472.117.928.289 1.36.512l1.116-.592 1.28.08s1.304.868 2.236.512a20.36 20.36 0 0 0 2.076-.968l1.148.968h.752l2.228-.432a1.353 1.353 0 0 0 1.46.432c.944-.272 9.964 0 12.26 0 2.296 0 2.8-.592 2.8-.592l1.768.592h8.8"/></g><path opacity=".2" d="M141.148 57.8a45.865 45.865 0 0 1-.836 2.312h-82s-.4-.84-.948-2.312h83.784ZM142.856 51.744c-.276 1.2-.58 2.372-.88 3.408H56.472a47.252 47.252 0 0 1-.864-3.408h87.248Z" fill="#000"/><path d="M140.312 60.112h-82a42.973 42.973 0 0 1-3.6-16.74h89.216c0 7.752-3.616 16.74-3.616 16.74Z" stroke="#263238" stroke-linecap="round" stroke-linejoin="round"/><path d="M49.337 40.732h-2.444v17.072h2.444V40.732Z" fill="#757575"/><path opacity=".2" d="M49.288 52.74h-2.38v5.064h2.38V52.74Z" fill="#000"/><path d="M49.337 40.732h-2.444v17.072h2.444V40.732Z" stroke="#263238" stroke-linecap="round" stroke-linejoin="round"/><path d="M151.716 40.732h-2.444v17.072h2.444V40.732Z" fill="#757575"/><path opacity=".2" d="M151.716 52.74h-2.464v5.064h2.464V52.74Z" fill="#000"/><path d="M151.716 40.732h-2.444v17.072h2.444V40.732Z" stroke="#263238" stroke-linecap="round" stroke-linejoin="round"/><path d="M149.292 40.016v12.452H49.316V40.016h-.96v13.288h101.896V40.016h-.96Z" fill="#999" stroke="#263238" stroke-linecap="round" stroke-linejoin="round"/><path d="M155.201 60.992v27.924a1.777 1.777 0 0 1-1.776 1.776H45.172a1.776 1.776 0 0 1-1.775-1.776V60.992a1.776 1.776 0 0 1 1.776-1.776h49.88v1.776s-8.516 7.388-23.2 10.112c2.104 9.524 13.6 16.8 27.472 16.8 13.872 0 25.368-7.284 27.476-16.8-14.704-2.724-23.22-10.112-23.22-10.112V59.2h49.856a1.774 1.774 0 0 1 1.764 1.792Z" fill="#fff" stroke="#263238" stroke-linecap="round" stroke-linejoin="round"/><path d="M155.201 60.992v27.924a1.767 1.767 0 0 1-.522 1.257 1.773 1.773 0 0 1-1.258.519H45.173a1.777 1.777 0 0 1-1.78-1.776V60.992a1.784 1.784 0 0 1 1.78-1.78h49.88v1.78s-8.52 7.384-23.2 10.112c2.104 9.524 13.6 16.8 27.476 16.8s25.364-7.284 27.472-16.8c-14.704-2.728-23.22-10.112-23.22-10.112V59.2h49.856a1.78 1.78 0 0 1 1.764 1.792Z" fill="#fff"/><path opacity=".2" d="M152.801 61.42V87.2a1.298 1.298 0 0 1-.809 1.203 1.295 1.295 0 0 1-.499.097H46.237a1.294 1.294 0 0 1-1.3-1.3V61.42a1.304 1.304 0 0 1 1.3-1.308h48.8v.88s-8.52 7.384-23.2 10.112c2.103 9.524 13.6 16.8 27.475 16.8 13.877 0 25.365-7.284 27.473-16.8-14.704-2.728-23.22-10.112-23.22-10.112v-.88h47.94a1.31 1.31 0 0 1 1.296 1.308Z" fill="#fff"/><path d="M155.201 60.992v27.924a1.767 1.767 0 0 1-.522 1.257 1.773 1.773 0 0 1-1.258.519H45.173a1.777 1.777 0 0 1-1.78-1.776V60.992a1.784 1.784 0 0 1 1.78-1.78h49.88v1.78s-8.52 7.384-23.2 10.112c2.104 9.524 13.6 16.8 27.476 16.8s25.364-7.284 27.472-16.8c-14.704-2.728-23.22-10.112-23.22-10.112V59.2h49.856a1.78 1.78 0 0 1 1.764 1.792v0Z" stroke="#263238" stroke-linecap="round" stroke-linejoin="round"/><path opacity=".2" d="m119.44 98.968 5.316 14.828s2.3-16.32 3.672-16.32c1.372 0 4.328 8.924 4.328 8.924s1.824-4.656 3.552-4.824c1.728-.168 3.292 11.432 3.292 11.432l.268 25.748-2.18 38.94s-13.908-15.32-17.964-19.268c-4.056-3.948-7.932-12.636-9.052-14.4-1.12-1.764-1.404-11-1.404-11a9.9 9.9 0 0 0 2.096-6.368s3.264-5.464 3.064-9.496c-.2-4.032-.704-19.7 5.012-18.196Z" fill="#000" fill-opacity=".7"/><path d="m161.284 170.8-21.056 11.076c0-.112-2.768-4.596-6.112-9.668a249.735 249.735 0 0 0-4.692-6.892c-2.536-3.572-5.76-6.656-6.036-7.328-.8-2-6.968-9.488-8.348-12.4-1.38-2.912-1.696-11.972-2.304-14.104-.608-2.132 1.136-4.168 2.536-5.16 1.4-.992 2.868-3.6 2.868-3.6s-1.548-6.032-1.564-9.1c-.016-3.068-1.06-13.776.188-14.776s2.364-.58 2.676.108c1.024 2.268 1.944 7.972 2.732 10.6.788 2.628 2.268 10.252 2.996 10.8.728.548 2.024-1.508 2.024-1.508s.124-6.4.4-9.052l-.4-8.4s-.748-5.048.992-5.528c2.4-.66 3.276.848 3.548 1.484.272.636 1.392 4.3 1.392 4.3l.064.252v.12l.06.228c.044.168.096.368.152.596.532 2.084 1.556 6.256 1.512 7.284-.06 1.388-.544 9.076.14 10.672l1.064-10.62S134.4 102 134.9 100.82c.5-1.18 2.856.124 3.136.588.28.464 2.568 3.272 2.976 4.344l.4 1.072s.564-2.536 1.888-1.876c1.324.66 1.488 3.884 1.58 5.292.092 1.408 1.052 10.464 1.2 10.48.148.016 1.676 4.72 1.468 7.828-.436 6.652.716 11.6.756 14.152.04 2.552-1.884 8.464-1.884 8.464.068.116 1.324 2.252 1.668 4.128.252 1.376 4.736 6.348 8.4 10.304 2.548 2.728 4.684 4.96 4.796 5.204Z" fill="#fff"/><path opacity=".4" d="M134.12 172.216a249.735 249.735 0 0 0-4.692-6.892c-2.536-3.572-5.76-6.656-6.036-7.328-.8-2-6.968-9.488-8.348-12.4-1.38-2.912-1.696-11.972-2.304-14.104-.608-2.132 1.136-4.168 2.536-5.16 1.4-.992 2.868-3.6 2.868-3.6s-1.548-6.032-1.564-9.1c-.016-3.068-1.06-13.776.188-14.776s2.364-.58 2.676.108c1.024 2.268 1.944 7.972 2.732 10.6.788 2.628 2.268 10.252 2.996 10.8.728.548 2.024-1.508 2.024-1.508s.124-6.4.4-9.052l-.4-8.4s-.748-5.048.992-5.528c2.4-.66 3.276.848 3.548 1.484.272.636 1.392 4.3 1.392 4.3l.064.252v.12a39.195 39.195 0 0 1 .212.824c-.62-.98-1.472-1.816-2.612-2.036-3.2-.624-2.508 2.936-2.204 5.072a14.836 14.836 0 0 1-.1 4.26l.8-.46c-.576 1.028-1.4 9.572-1.4 11.472 0 1.9-1.504 2.532-2.852 1.976-1.348-.556-1.828-9.276-2.852-10.84-1.024-1.564-3.872 1.424-4 4.156-.128 2.732 2.42 10.88 1.816 12.8-.604 1.92-.596 9.2-.596 9.2l-.736-1.876c.048.256 0 1.116-1.54 3.648a7.527 7.527 0 0 0-.836 6.224c.94 2.076 5.708 7.548 6.508 8.112 0 0 .58-2.376 2.4-1.744a10.494 10.494 0 0 0-1.336 3.2c-.376 1.744 3.42 2.86 4.608 4.52.728 1.012 1.216 4.096 5.648 11.676ZM156.512 165.6c-3.744-3.772-10.332-7.364-9.932-8.304.536-1.264-.144-3.956-1.296-6.14-1.152-2.184.4-5.728.4-5.728l.712 2.06a17.55 17.55 0 0 0 .196-7.248c-.728-4.084-1.296-2.648-1.296-2.648s.148-3.68.8-5.688c.652-2.008 1.2-6.884.3-9.768-.9-2.884-2.8-2.34-3.308-1.348-.508.992.036 4.86.456 6.128.42 1.268-1.368 3.4-1.404 1.816-.036-1.584-.712-6-.712-6l1.356-8.868-1.356-7.044s.564-2.536 1.888-1.876c1.324.66 1.488 3.884 1.58 5.292.092 1.408 1.052 10.464 1.2 10.48.148.016 1.676 4.72 1.468 7.828-.436 6.652.716 11.6.756 14.152.04 2.552-1.884 8.464-1.884 8.464.068.116 1.324 2.252 1.668 4.128.252 1.376 4.736 6.348 8.4 10.304l.008.008ZM141.012 105.752c.076.2.14.364.188.496-1.272-2.956-3.44-2.04-3.824-1.2-.384.84.908 6.052 1.2 6.86.292.808-1.16 7.26-1.372 9.396-.212 2.136-.776 2.572-.776 2.572-1.436.108-1.6-3.856-1.6-4.4.028.455.117.904.264 1.336l1.064-10.62S134.4 102 134.9 100.82c.5-1.18 2.856.124 3.136.588.28.464 2.568 3.272 2.976 4.344Z" fill="#fff"/><path d="M161.284 170.8c-.272-.616-12.764-13.2-13.2-15.512-.352-1.928-1.672-4.132-1.672-4.132s1.924-5.9 1.884-8.464c-.04-2.564-1.2-7.5-.756-14.152.208-3.108-1.316-7.812-1.468-7.828-.152-.016-1.112-9.072-1.2-10.48-.088-1.408-.252-4.632-1.58-5.292-1.328-.66-1.888 1.876-1.888 1.876l-.4-1.072c-.4-1.072-2.696-3.88-2.976-4.344-.28-.464-2.632-1.772-3.136-.588-.504 1.184 1.252 9.356 1.252 9.356l-1.056 10.632c-.684-1.6-.2-9.284-.14-10.672s-1.82-8.48-1.82-8.48S132 98 131.736 97.344c-.264-.656-1.148-2.144-3.548-1.484-1.74.48-.992 5.528-.992 5.528l.4 8.4c-.268 2.664-.4 9.052-.4 9.052s-1.296 2.052-2.024 1.508-2.208-8.164-2.996-10.8c-.788-2.636-1.708-8.332-2.732-10.6-.312-.688-1.428-1.108-2.676-.108-1.248 1-.208 11.704-.188 14.776.02 3.072 1.564 9.1 1.564 9.1s-1.468 2.592-2.868 3.6-3.144 3.024-2.536 5.16c.608 2.136.924 11.2 2.304 14.104s7.532 10.4 8.348 12.4c.276.672 3.5 3.756 6.036 7.328 4.98 7.012 10.8 16.4 10.8 16.56" stroke="#263238" stroke-linecap="round" stroke-linejoin="round"/><path d="M118.139 122.736s.992 4.916.956 5.74c0 0-.868 3.796-.876 6.256a25.205 25.205 0 0 0-1.632 2.892c-.336.888-.936 3.072-.688 4.288" stroke="#263238" stroke-linecap="round" stroke-linejoin="round"/><path d="M116.327 130s2.432.02 2.276 1.044M118.219 134.732s-1.56-.676-2.108.232M127.2 118.856s-.112 3.768-1.104 3.468M135.087 120.8s-.288 2.06.488 2.696M141.416 106.824s1.08 5.2 1.328 6.432c.248 1.232-1.228 7.52-1.2 9.156.028 1.636.728 3.976.632 5.076M145.728 146.316s-.348 3.396.696 4.848M124.755 153.036s-2.328 2.12-1.476 4.728M140.056 126.604c.036 1.496-.84 3.24-.932 5.308M132.64 125.268c.496 1.224-.584 3.888-.748 4.888-.066.782.019 1.57.252 2.32M146.579 129.484c-.2 1.3-1.12 2.228-1.296 6.228M123.867 124.888c.672.732.22 4.228.4 4.8M136.399 104.748s2.288-1.676 4.256.3M128.52 100.896s.4-.668 2.332-.504c1.932.164 2.276 1.252 2.276 1.252" stroke="#263238" stroke-linecap="round" stroke-linejoin="round"/><path d="M122.876 112.316s-.648-.956-2.356-.64c-1.708.316-2.468 2.732-2.468 2.732" fill="#fff"/><path d="M122.876 112.316s-.648-.956-2.356-.64c-1.708.316-2.468 2.732-2.468 2.732M146.083 120.72s-1.424-2.064-3.136-1.18" stroke="#263238" stroke-linecap="round" stroke-linejoin="round"/><path opacity=".2" d="M85.42 105.6c2.4 1.86.375 13.276.375 13.276l.212 3.716 4.116-1.792L92 128.74s-.048 2.908 1.476 4c0 0 .376 6.524 0 11.292s-8 10.372-10.628 15.376S63.08 179.12 63.08 179.12l-14.512-6.904L59.06 129.84l9.4-12.084 5.572-13.9s.956 9.08.4 15.2L85.42 105.6Z" fill="#000" fill-opacity=".7"/><path d="M89.46 130.96c-.364 1.752.512 11.356.36 12.652-.152 1.296-7.792 10-8.176 10.66-.384.66-5.492 3.6-6.68 5.004-5.552 6.476-8.584 12.44-11.02 18.42a159.433 159.433 0 0 0-1.356 3.468l-22.032-12.8c1.852-2.296 3.6-4.336 5.2-6.192 3.2-3.764 5.748-6.776 6.996-9.62.383-.726.821-1.422 1.312-2.08.496-.704.94-1.284.94-1.284s-1.6-4.508-1.228-5.924c.372-1.416-.46-13.056-.46-13.056s-1.084-7.924-2.152-9.924a3.296 3.296 0 0 1-.344-1.688c.052-1.828 1.112-4.132 1.632-6.8.696-3.6.36-5.38 2.544-4.136 2.184 1.244 1.164 8.8 1.164 8.8l3.3 7.312c.868-1.768 0-6.928-.044-8.148 0-.2 0-.532-.032-.964-.068-2.104-.208-6.484-.028-8.212 0-.096 0-.184.032-.264.268-1.784 1.224-7.46 1.832-8.092.904-.936 2.34-1.724 3.692.4.756 1.2.432 10.716.432 10.716s3.136-3.784 4.088-4.708c.952-.924 3.84-2.612 4.612-.656.772 1.956-2.076 8-2.076 8 .596 1.4.668 5.276.668 5.276s1.348 4.844 2.176 4.8h.036c.24-.052.504-.932.78-2.168.68-3.028 1.42-8.208 2-8.66l.4-.32a.307.307 0 0 1 .064-.06l.148-.132c1.416-1.26 4.4-4.06 4.4-4.06s.212-1.34 2.824-.928c2.612.412-1.16 8.12-1.16 8.12-.524 2.452-1.328 8.76-1.328 8.76-.244 2.624-.1 9.676-.1 9.676s1.236-4.104 1.156-5.6c-.08-1.496 2.456-5.16 3.2-6.104.744-.944 4.064-.612 3.14 1.2-.924 1.812-.548 7.556-.912 9.316Z" fill="#fff"/><path opacity=".4" d="M52.74 152.568c.383-.726.822-1.422 1.312-2.08 0 0-1.3 3.6-1.428 5.516-.084 1.264-3.412 3.452-6.88 6.184 3.22-3.764 5.748-6.776 6.996-9.62ZM54.052 150.488c.496-.704.94-1.284.94-1.284s-1.6-4.508-1.228-5.924c.372-1.416-.46-13.056-.46-13.056s-1.084-7.924-2.152-9.924l2.488 4.348s-.244 3.436.464 5.32c.708 1.884 1.6 7.632 1.6 7.632s-1.048 4.832-.692 6.572c.356 1.74 1.96 1.108 1.96 1.108s.788 3.184-2.92 5.208ZM59.856 117.756c1.716 10.048-1.24 7.268-2.308 5.1-1.068-2.168-3.576-6.272-5.464-5.396-.53.249-.975.65-1.276 1.152.052-1.828 1.112-4.132 1.632-6.8.696-3.6.36-5.38 2.544-4.136 2.184 1.244 1.164 8.8 1.164 8.8l3.3 7.312c.868-1.768 0-6.928-.044-8.148 0-.2 0-.532-.032-.964.132.924.292 1.952.484 3.08ZM64.056 107.828s-1.852-2.424-3.46-2.3a1.416 1.416 0 0 0-1.252.924c0-.096 0-.184.032-.264.268-1.784 1.224-7.46 1.832-8.092.904-.936 2.34-1.724 3.692.4.756 1.2.432 10.716.432 10.716s3.136-3.784 4.088-4.708c.952-.924 3.84-2.612 4.612-.656.772 1.956-2.076 8-2.076 8 .596 1.4.668 5.276.668 5.276s1.348 4.844 2.176 4.8c-1.824 3.432-3.04-4.156-3.04-4.156.272-1.568-.696-4.968-.6-5.864.096-.896-1.68-4.064-4.672-3.2-2.992.864-.832 12.688-.832 12.688a6.61 6.61 0 0 0-1 3.128c-.924-1.14 0-4.4 0-4.4-.82-3.12-.6-12.292-.6-12.292ZM78 110.76c-1.276 1.34-1.1 4.728-2.4 8.98.68-3.028 1.42-8.208 2-8.66l.4-.32ZM89.46 130.96c-.364 1.752.512 11.356.36 12.652-.152 1.296-7.792 10-8.176 10.66-.384.66-5.492 3.6-6.68 5.004-5.552 6.476-8.584 12.44-11.02 18.42.918-3.1 2.025-6.14 3.316-9.104 2.628-5.908 3.7-6.96 5.276-8.648 1.576-1.688 1.404-5.276 1.404-5.276a15.124 15.124 0 0 1 3.552-.42c2 0 7.92-8.44 9.956-9.92 2.036-1.48 2.4-1.48 0-4.744s-1.72.524-2.44.4-1.112 1.452-1.112 1.452c-.252-3.328-2.4-7.2-2.852-8.168-.452-.968 1.096-6.644.776-8.224-.32-1.58 1.376-11.2 1.376-11.2s-.212-3.692-3.556-3.704a2.197 2.197 0 0 0-1.432.432c1.416-1.26 4.4-4.06 4.4-4.06s.212-1.34 2.824-.928c2.612.412-1.16 8.12-1.16 8.12-.524 2.452-1.328 8.76-1.328 8.76-.244 2.624-.1 9.676-.1 9.676s1.236-4.104 1.156-5.6c-.08-1.496 2.456-5.16 3.2-6.104.744-.944 4.064-.612 3.14 1.2-.924 1.812-.516 7.564-.88 9.324Z" fill="#fff"/><path d="M62.584 181.2c2.716-7.172 5.752-14.172 12.38-21.904 1.2-1.384 6.292-4.324 6.68-5.004.388-.68 8.028-9.368 8.176-10.66.148-1.292-.724-10.9-.36-12.652.364-1.752-.06-7.528.86-9.328.92-1.8-2.4-2.128-3.14-1.2-.74.928-3.268 4.624-3.2 6.104.068 1.48-1.156 5.6-1.156 5.6s-.144-7.052.1-9.676c0 0 .8-6.308 1.328-8.76 0 0 3.768-7.712 1.16-8.12-2.608-.408-2.824.928-2.824.928s-4.164 3.912-4.988 4.552c-.824.64-1.948 10.64-2.776 10.828-.828.188-2.212-4.8-2.212-4.8s-.072-3.876-.668-5.276c0 0 2.844-6.028 2.076-8-.768-1.972-3.656-.264-4.612.656s-4.088 4.708-4.088 4.708.324-9.524-.432-10.716c-1.352-2.132-2.8-1.344-3.692-.4-.608.632-1.564 6.308-1.832 8.092-.268 1.784 0 8.216.028 9.44.028 1.224.912 6.38.044 8.148l-3.3-7.312s1.024-7.564-1.164-8.8c-2.188-1.236-1.848.548-2.544 4.136s-2.352 6.504-1.288 8.508c1.064 2.004 2.152 9.924 2.152 9.924s.824 11.64.46 13.056c-.364 1.416 1.24 5.928 1.24 5.928s-1.848 2.436-2.252 3.364c-1.864 4.236-6.58 8.868-12.188 15.836" stroke="#263238" stroke-linecap="round" stroke-linejoin="round"/><path d="M65.331 109.22a3.929 3.929 0 0 0-.672 2.332c0 1.52.996 9.84.996 9.84s-.724.856-.76 1.6M82.832 132.136c.11 1.405.471 2.779 1.068 4.056.936 1.848.632 2.868.312 3.96a14.121 14.121 0 0 0-.34 2.916M59.8 122.132s.696 2.208-.596 3.256M74.836 121.908s.136.868-1.092.948M83.083 111.908s-3.08-3.36-5.472-.828" stroke="#263238" stroke-linecap="round" stroke-linejoin="round"/><path d="M70.604 110.02s-1.42-1.796-2.652-1.688c-1.232.108-2.896.86-3.084 1.848M84.476 139.072a7.086 7.086 0 0 1 1.068 2.348M76.476 125.416c-.956 1.78-.5 4.8-.852 5.628M66.348 122.46c.224 1.024-.484 2.692-.592 3.92-.108 1.228.896 3.124.712 4.848M59.856 126.652s-.836 1.928-.8 3.2c.036 1.272.488 4.06.488 4.06M53.708 126.56s-.304 2 .4 3.408 1.388 4.4 1.388 4.4M54.991 149.2a1.911 1.911 0 0 0 1.388-1.636M75.1 155.296s.763 2.828-.7 4.648M50.827 118.276s2.152-2.1 3.78-.328M59.376 106.188s1.6-1.676 3.472.116" stroke="#263238" stroke-linecap="round" stroke-linejoin="round"/></svg>